<svg xmlns="http://www.w3.org/2000/svg" xmlns:xlink="http://www.w3.org/1999/xlink" width="1366" zoomAndPan="magnify" viewBox="0 0 1024.5 576" height="768" preserveAspectRatio="xMidYMid meet" version="1.0"><defs><clipPath id="7eeb550d39"><path d="M 0 0.140625 L 1024 0.140625 L 1024 575.859375 L 0 575.859375 Z M 0 0.140625 " clip-rule="nonzero"/></clipPath><clipPath id="d4befc5be2"><path d="M 0 0.140625 L 1024 0.140625 L 1024 499 L 0 499 Z M 0 0.140625 " clip-rule="nonzero"/></clipPath><clipPath id="84bb52b6b3"><path d="M 4.863281 -302.429688 L 1563.371094 -36.8125 L 1457.199219 586.148438 L -101.304688 320.53125 Z M 4.863281 -302.429688 " clip-rule="nonzero"/></clipPath><clipPath id="7c4ac186b3"><path d="M 4.863281 -302.429688 L 1563.371094 -36.8125 L 1457.199219 586.148438 L -101.304688 320.53125 Z M 4.863281 -302.429688 " clip-rule="nonzero"/></clipPath></defs><g clip-path="url(#7eeb550d39)"><path fill="#ffffff" d="M 0 0.140625 L 1024 0.140625 L 1024 575.859375 L 0 575.859375 Z M 0 0.140625 " fill-opacity="1" fill-rule="nonzero"/><path fill="#ffffff" d="M 0 0.140625 L 1024 0.140625 L 1024 575.859375 L 0 575.859375 Z M 0 0.140625 " fill-opacity="1" fill-rule="nonzero"/></g><g clip-path="url(#d4befc5be2)"><g clip-path="url(#84bb52b6b3)"><g clip-path="url(#7c4ac186b3)"><path fill="#00854a" d="M 1483.710938 318.191406 C 1477.820312 327.140625 1471.652344 335.691406 1466.410156 344.925781 C 1429.078125 409.273438 1375.6875 446.96875 1313.410156 469.179688 C 1297.601562 474.863281 1281.507812 480.152344 1265.511719 482.839844 C 1130.882812 505.464844 999.097656 508.320312 874.359375 463.667969 C 796.535156 435.738281 719.824219 404.332031 639.738281 383.523438 C 562.167969 363.316406 481.078125 353.515625 401.160156 340.941406 C 315.785156 327.613281 229.714844 317.308594 152.324219 278.628906 C 80.894531 242.882812 4.3125 215.863281 -32.695312 137.96875 C -47.101562 107.753906 -54.253906 51.359375 -48.582031 17.058594 C -42.445312 -19.957031 -12.101562 -77.117188 24.648438 -137.027344 C 62.390625 -182.277344 87.652344 -196.304688 131.929688 -210.234375 C 274.738281 -255.210938 410.957031 -232.867188 548.828125 -204.832031 C 640.976562 -186.160156 735.933594 -177.832031 828.3125 -159.46875 C 917.832031 -141.769531 1005.203125 -116.574219 1094.0625 -96.019531 C 1115.886719 -90.902344 1139.207031 -91.46875 1161.691406 -88.160156 C 1212.765625 -80.503906 1266.039062 -78.582031 1314.113281 -62.53125 C 1371.117188 -43.5625 1421.921875 -8.714844 1462.867188 37.898438 C 1515.390625 97.484375 1526.96875 174.011719 1505.59375 261.507812 C 1504.359375 266.710938 1503.460938 271.972656 1502.394531 277.203125 C 1496.035156 290.960938 1489.875 304.574219 1483.710938 318.191406 Z M 1483.710938 318.191406 " fill-opacity="1" fill-rule="nonzero"/></g></g></g></svg>