<svg xmlns="http://www.w3.org/2000/svg" xmlns:xlink="http://www.w3.org/1999/xlink" width="1280" zoomAndPan="magnify" viewBox="0 0 960 562.499983" height="750" preserveAspectRatio="xMidYMid meet" version="1.0"><path fill="#ffffff" d="M 772.746094 180.445312 C 771.558594 179.761719 770.300781 179.238281 768.976562 178.886719 C 767.652344 178.53125 766.304688 178.351562 764.933594 178.351562 C 763.5625 178.351562 762.214844 178.53125 760.890625 178.886719 C 759.5625 179.238281 758.308594 179.761719 757.121094 180.445312 L 620.824219 259.121094 L 620.824219 217.441406 C 620.824219 216.414062 620.722656 215.398438 620.523438 214.390625 C 620.324219 213.386719 620.027344 212.410156 619.636719 211.460938 C 619.242188 210.511719 618.761719 209.613281 618.191406 208.757812 C 617.621094 207.90625 616.972656 207.117188 616.246094 206.390625 C 615.523438 205.664062 614.734375 205.019531 613.878906 204.449219 C 613.027344 203.878906 612.125 203.394531 611.179688 203.003906 C 610.230469 202.609375 609.253906 202.316406 608.246094 202.113281 C 607.242188 201.914062 606.222656 201.8125 605.199219 201.8125 L 492.886719 201.8125 C 494.378906 200.324219 495.824219 198.792969 497.226562 197.21875 C 498.628906 195.644531 499.980469 194.03125 501.285156 192.378906 C 502.59375 190.722656 503.847656 189.03125 505.054688 187.300781 C 506.257812 185.574219 507.410156 183.8125 508.511719 182.015625 C 509.613281 180.21875 510.660156 178.390625 511.652344 176.53125 C 512.644531 174.671875 513.582031 172.785156 514.464844 170.871094 C 515.34375 168.957031 516.167969 167.015625 516.933594 165.054688 C 517.699219 163.089844 518.40625 161.105469 519.054688 159.101562 C 519.703125 157.097656 520.292969 155.074219 520.820312 153.035156 C 521.351562 150.992188 521.820312 148.941406 522.226562 146.871094 C 522.632812 144.804688 522.980469 142.726562 523.261719 140.636719 C 523.546875 138.550781 523.769531 136.457031 523.929688 134.355469 C 524.089844 132.253906 524.1875 130.148438 524.222656 128.042969 C 524.257812 125.933594 524.230469 123.828125 524.144531 121.722656 C 524.054688 119.617188 523.902344 117.515625 523.6875 115.417969 C 523.476562 113.324219 523.199219 111.234375 522.863281 109.15625 C 522.523438 107.074219 522.125 105.007812 521.667969 102.949219 C 521.207031 100.894531 520.6875 98.851562 520.105469 96.824219 C 519.527344 94.800781 518.886719 92.792969 518.1875 90.804688 C 517.488281 88.816406 516.730469 86.851562 515.914062 84.910156 C 515.097656 82.964844 514.226562 81.046875 513.296875 79.15625 C 512.367188 77.265625 511.382812 75.402344 510.339844 73.570312 C 509.300781 71.738281 508.207031 69.9375 507.0625 68.167969 C 505.917969 66.398438 504.71875 64.667969 503.46875 62.96875 C 502.222656 61.273438 500.921875 59.613281 499.574219 57.992188 C 498.230469 56.371094 496.835938 54.792969 495.394531 53.253906 C 493.953125 51.714844 492.46875 50.222656 490.9375 48.773438 C 489.410156 47.320312 487.839844 45.917969 486.226562 44.5625 C 484.613281 43.203125 482.964844 41.894531 481.273438 40.636719 C 479.585938 39.378906 477.859375 38.167969 476.097656 37.011719 C 474.335938 35.855469 472.542969 34.75 470.714844 33.699219 C 468.890625 32.648438 467.03125 31.652344 465.148438 30.710938 C 463.261719 29.769531 461.347656 28.886719 459.410156 28.058594 C 457.472656 27.230469 455.511719 26.460938 453.527344 25.75 C 451.546875 25.039062 449.542969 24.386719 447.519531 23.792969 C 445.5 23.199219 443.460938 22.667969 441.40625 22.195312 C 439.351562 21.722656 437.285156 21.3125 435.207031 20.960938 C 433.128906 20.609375 431.042969 20.324219 428.949219 20.097656 C 426.851562 19.871094 424.753906 19.707031 422.648438 19.601562 C 420.542969 19.5 418.4375 19.460938 416.332031 19.484375 C 414.222656 19.507812 412.117188 19.589844 410.015625 19.738281 C 407.914062 19.886719 405.816406 20.09375 403.726562 20.367188 C 401.636719 20.636719 399.558594 20.972656 397.488281 21.367188 C 395.417969 21.761719 393.359375 22.214844 391.316406 22.730469 C 389.273438 23.246094 387.25 23.824219 385.238281 24.460938 C 383.230469 25.097656 381.242188 25.792969 379.273438 26.546875 C 377.304688 27.300781 375.363281 28.113281 373.441406 28.980469 C 371.523438 29.851562 369.628906 30.773438 367.765625 31.757812 C 365.898438 32.738281 364.066406 33.773438 362.261719 34.863281 C 360.457031 35.953125 358.6875 37.09375 356.953125 38.289062 C 355.214844 39.484375 353.515625 40.730469 351.855469 42.023438 C 350.191406 43.320312 348.570312 44.664062 346.988281 46.054688 C 345.40625 47.445312 343.863281 48.882812 342.367188 50.367188 C 340.867188 51.847656 339.417969 53.375 338.007812 54.941406 C 336.601562 56.511719 335.242188 58.121094 333.929688 59.769531 C 332.617188 61.417969 331.355469 63.105469 330.144531 64.828125 C 328.929688 66.550781 327.769531 68.308594 326.664062 70.101562 C 325.554688 71.894531 324.5 73.71875 323.5 75.574219 C 322.5 77.429688 321.554688 79.3125 320.667969 81.222656 C 319.777344 83.132812 318.949219 85.070312 318.171875 87.03125 C 317.398438 88.988281 316.683594 90.972656 316.027344 92.972656 C 315.371094 94.976562 314.773438 96.996094 314.238281 99.035156 C 313.699219 101.070312 313.222656 103.125 312.808594 105.191406 C 312.390625 107.253906 312.039062 109.332031 311.746094 111.417969 C 310.203125 110.613281 308.628906 109.867188 307.023438 109.191406 C 305.417969 108.511719 303.789062 107.898438 302.136719 107.351562 C 300.484375 106.804688 298.808594 106.324219 297.117188 105.914062 C 295.421875 105.503906 293.714844 105.164062 291.996094 104.890625 C 290.277344 104.617188 288.546875 104.417969 286.808594 104.285156 C 285.074219 104.152344 283.332031 104.089844 281.589844 104.101562 C 279.847656 104.109375 278.109375 104.191406 276.375 104.339844 C 274.640625 104.492188 272.914062 104.714844 271.195312 105.003906 C 269.476562 105.296875 267.773438 105.65625 266.085938 106.085938 C 264.398438 106.515625 262.730469 107.011719 261.082031 107.574219 C 259.433594 108.140625 257.8125 108.769531 256.214844 109.46875 C 254.617188 110.164062 253.054688 110.925781 251.519531 111.746094 C 249.984375 112.570312 248.484375 113.457031 247.019531 114.402344 C 245.558594 115.347656 244.136719 116.351562 242.753906 117.410156 C 241.371094 118.472656 240.035156 119.589844 238.746094 120.757812 C 237.453125 121.925781 236.214844 123.148438 235.019531 124.417969 C 233.828125 125.6875 232.691406 127.003906 231.605469 128.367188 C 230.519531 129.730469 229.492188 131.136719 228.523438 132.582031 C 227.550781 134.027344 226.640625 135.511719 225.789062 137.03125 C 224.941406 138.550781 224.152344 140.105469 223.429688 141.6875 C 222.703125 143.273438 222.046875 144.882812 221.453125 146.519531 C 220.859375 148.160156 220.332031 149.820312 219.875 151.5 C 219.414062 153.179688 219.023438 154.875 218.703125 156.589844 C 218.382812 158.300781 218.132812 160.023438 217.953125 161.753906 C 217.769531 163.488281 217.660156 165.226562 217.621094 166.964844 C 217.582031 168.707031 217.609375 170.449219 217.710938 172.1875 C 217.8125 173.925781 217.984375 175.660156 218.226562 177.382812 C 218.46875 179.109375 218.78125 180.820312 219.164062 182.519531 C 219.542969 184.21875 219.992188 185.902344 220.511719 187.566406 C 221.03125 189.226562 221.613281 190.867188 222.265625 192.484375 C 222.914062 194.097656 223.632812 195.6875 224.410156 197.242188 C 225.191406 198.800781 226.03125 200.324219 226.9375 201.8125 L 195.019531 201.8125 C 193.996094 201.8125 192.980469 201.914062 191.972656 202.113281 C 190.964844 202.316406 189.988281 202.609375 189.042969 203.003906 C 188.09375 203.394531 187.191406 203.878906 186.339844 204.449219 C 185.488281 205.019531 184.699219 205.664062 183.972656 206.390625 C 183.246094 207.117188 182.597656 207.90625 182.027344 208.757812 C 181.457031 209.613281 180.976562 210.511719 180.585938 211.460938 C 180.191406 212.410156 179.894531 213.386719 179.695312 214.390625 C 179.496094 215.398438 179.394531 216.414062 179.394531 217.441406 L 179.394531 508.824219 C 179.394531 509.847656 179.496094 510.863281 179.695312 511.871094 C 179.894531 512.878906 180.191406 513.855469 180.585938 514.800781 C 180.976562 515.75 181.457031 516.652344 182.027344 517.503906 C 182.597656 518.355469 183.246094 519.144531 183.972656 519.871094 C 184.699219 520.597656 185.488281 521.246094 186.339844 521.816406 C 187.191406 522.386719 188.09375 522.867188 189.042969 523.257812 C 189.988281 523.652344 190.964844 523.949219 191.972656 524.148438 C 192.980469 524.347656 193.996094 524.449219 195.019531 524.449219 L 605.199219 524.449219 C 606.222656 524.449219 607.242188 524.347656 608.246094 524.148438 C 609.253906 523.949219 610.230469 523.652344 611.179688 523.257812 C 612.125 522.867188 613.027344 522.382812 613.878906 521.816406 C 614.734375 521.246094 615.523438 520.597656 616.246094 519.871094 C 616.972656 519.144531 617.621094 518.355469 618.191406 517.503906 C 618.761719 516.652344 619.242188 515.75 619.636719 514.800781 C 620.027344 513.855469 620.324219 512.878906 620.523438 511.871094 C 620.722656 510.863281 620.824219 509.847656 620.824219 508.824219 L 620.824219 467.101562 L 757.160156 545.816406 C 758.347656 546.503906 759.601562 547.023438 760.929688 547.378906 C 762.253906 547.734375 763.601562 547.910156 764.972656 547.910156 C 766.34375 547.910156 767.691406 547.734375 769.015625 547.378906 C 770.339844 547.023438 771.597656 546.503906 772.785156 545.816406 C 773.976562 545.128906 775.054688 544.300781 776.027344 543.328125 C 776.996094 542.359375 777.824219 541.277344 778.511719 540.085938 C 779.195312 538.898438 779.714844 537.640625 780.070312 536.3125 C 780.425781 534.984375 780.601562 533.632812 780.597656 532.261719 L 780.597656 193.960938 C 780.59375 192.589844 780.414062 191.242188 780.054688 189.917969 C 779.695312 188.59375 779.171875 187.339844 778.484375 186.152344 C 777.792969 184.964844 776.964844 183.886719 775.992188 182.921875 C 775.019531 181.953125 773.9375 181.128906 772.746094 180.445312 Z M 417.6875 50.710938 C 418.925781 50.714844 420.160156 50.75 421.394531 50.8125 C 422.628906 50.878906 423.859375 50.972656 425.089844 51.09375 C 426.320312 51.21875 427.542969 51.375 428.765625 51.558594 C 429.988281 51.742188 431.203125 51.957031 432.417969 52.199219 C 433.628906 52.445312 434.832031 52.71875 436.03125 53.023438 C 437.226562 53.324219 438.417969 53.65625 439.601562 54.019531 C 440.78125 54.378906 441.953125 54.769531 443.117188 55.191406 C 444.277344 55.609375 445.429688 56.054688 446.570312 56.53125 C 447.710938 57.007812 448.839844 57.511719 449.957031 58.042969 C 451.070312 58.574219 452.171875 59.132812 453.261719 59.714844 C 454.351562 60.300781 455.425781 60.914062 456.484375 61.550781 C 457.539062 62.1875 458.582031 62.851562 459.609375 63.539062 C 460.636719 64.230469 461.644531 64.941406 462.632812 65.679688 C 463.625 66.417969 464.597656 67.183594 465.550781 67.96875 C 466.503906 68.753906 467.4375 69.5625 468.351562 70.394531 C 469.265625 71.226562 470.160156 72.082031 471.03125 72.957031 C 471.902344 73.832031 472.753906 74.726562 473.582031 75.644531 C 474.410156 76.5625 475.214844 77.5 475.996094 78.457031 C 476.777344 79.414062 477.535156 80.390625 478.269531 81.382812 C 479.003906 82.378906 479.710938 83.390625 480.398438 84.417969 C 481.082031 85.445312 481.742188 86.492188 482.375 87.554688 C 483.007812 88.613281 483.613281 89.691406 484.195312 90.78125 C 484.773438 91.871094 485.328125 92.976562 485.855469 94.09375 C 486.378906 95.214844 486.878906 96.34375 487.347656 97.488281 C 487.820312 98.628906 488.261719 99.78125 488.675781 100.945312 C 489.089844 102.113281 489.476562 103.285156 489.832031 104.46875 C 490.1875 105.652344 490.515625 106.84375 490.8125 108.042969 C 491.113281 109.242188 491.378906 110.449219 491.621094 111.660156 C 491.859375 112.871094 492.066406 114.089844 492.246094 115.3125 C 492.425781 116.535156 492.574219 117.761719 492.695312 118.992188 C 492.8125 120.222656 492.902344 121.453125 492.960938 122.6875 C 493.019531 123.921875 493.046875 125.15625 493.042969 126.394531 C 493.042969 127.628906 493.007812 128.863281 492.945312 130.097656 C 492.882812 131.332031 492.792969 132.5625 492.667969 133.792969 C 492.542969 135.023438 492.390625 136.25 492.207031 137.472656 C 492.023438 138.695312 491.8125 139.910156 491.570312 141.121094 C 491.324219 142.332031 491.054688 143.539062 490.75 144.738281 C 490.449219 145.933594 490.117188 147.125 489.757812 148.308594 C 489.394531 149.488281 489.007812 150.660156 488.589844 151.824219 C 488.171875 152.988281 487.722656 154.140625 487.25 155.28125 C 486.773438 156.421875 486.273438 157.550781 485.742188 158.667969 C 485.210938 159.78125 484.65625 160.886719 484.070312 161.972656 C 483.488281 163.0625 482.875 164.136719 482.238281 165.195312 C 481.601562 166.253906 480.941406 167.296875 480.253906 168.324219 C 479.566406 169.351562 478.851562 170.359375 478.113281 171.351562 C 477.378906 172.34375 476.617188 173.316406 475.832031 174.269531 C 475.046875 175.226562 474.238281 176.160156 473.40625 177.074219 C 472.574219 177.988281 471.722656 178.882812 470.847656 179.753906 C 469.972656 180.628906 469.074219 181.476562 468.160156 182.308594 C 467.242188 183.136719 466.304688 183.941406 465.351562 184.722656 C 464.394531 185.507812 463.417969 186.265625 462.425781 187 C 461.433594 187.734375 460.421875 188.445312 459.394531 189.132812 C 458.363281 189.816406 457.320312 190.476562 456.257812 191.109375 C 455.199219 191.746094 454.121094 192.351562 453.03125 192.933594 C 451.941406 193.515625 450.835938 194.070312 449.71875 194.597656 C 448.601562 195.125 447.472656 195.621094 446.332031 196.09375 C 445.1875 196.566406 444.035156 197.007812 442.871094 197.425781 C 441.707031 197.839844 440.535156 198.226562 439.351562 198.582031 C 438.167969 198.941406 436.976562 199.269531 435.777344 199.566406 C 434.578125 199.867188 433.375 200.136719 432.160156 200.375 C 430.949219 200.617188 429.730469 200.828125 428.507812 201.007812 C 427.285156 201.1875 426.058594 201.335938 424.828125 201.457031 C 423.601562 201.578125 422.367188 201.667969 421.132812 201.726562 C 419.898438 201.785156 418.664062 201.816406 417.429688 201.8125 C 416.191406 201.8125 414.957031 201.78125 413.722656 201.71875 C 412.488281 201.660156 411.257812 201.566406 410.027344 201.445312 C 408.796875 201.320312 407.570312 201.171875 406.347656 200.988281 C 405.128906 200.804688 403.910156 200.59375 402.699219 200.351562 C 401.488281 200.109375 400.28125 199.835938 399.082031 199.535156 C 397.882812 199.234375 396.695312 198.90625 395.511719 198.546875 C 394.328125 198.1875 393.15625 197.796875 391.992188 197.378906 C 390.828125 196.964844 389.675781 196.519531 388.535156 196.042969 C 387.394531 195.570312 386.265625 195.070312 385.148438 194.539062 C 384.03125 194.011719 382.929688 193.457031 381.839844 192.871094 C 380.75 192.289062 379.675781 191.679688 378.617188 191.042969 C 377.554688 190.40625 376.511719 189.746094 375.484375 189.058594 C 374.457031 188.371094 373.449219 187.660156 372.457031 186.921875 C 371.464844 186.1875 370.492188 185.425781 369.535156 184.640625 C 368.582031 183.855469 367.644531 183.050781 366.730469 182.21875 C 365.816406 181.390625 364.921875 180.535156 364.046875 179.664062 C 363.175781 178.789062 362.324219 177.894531 361.492188 176.976562 C 360.664062 176.0625 359.855469 175.125 359.074219 174.171875 C 358.289062 173.214844 357.53125 172.242188 356.792969 171.246094 C 356.058594 170.253906 355.347656 169.246094 354.660156 168.21875 C 353.976562 167.1875 353.316406 166.144531 352.679688 165.085938 C 352.042969 164.023438 351.4375 162.949219 350.855469 161.859375 C 350.273438 160.769531 349.714844 159.667969 349.1875 158.550781 C 348.660156 157.433594 348.160156 156.300781 347.6875 155.160156 C 347.214844 154.019531 346.769531 152.867188 346.355469 151.703125 C 345.9375 150.539062 345.550781 149.367188 345.191406 148.183594 C 344.832031 147 344.503906 145.808594 344.203125 144.609375 C 343.902344 143.414062 343.632812 142.207031 343.394531 140.996094 C 343.152344 139.78125 342.941406 138.566406 342.757812 137.34375 C 342.578125 136.121094 342.425781 134.894531 342.304688 133.664062 C 342.183594 132.433594 342.09375 131.203125 342.035156 129.96875 C 341.972656 128.734375 341.941406 127.5 341.941406 126.261719 C 341.945312 125.027344 341.976562 123.789062 342.039062 122.550781 C 342.101562 121.316406 342.195312 120.082031 342.316406 118.851562 C 342.441406 117.617188 342.59375 116.390625 342.777344 115.164062 C 342.960938 113.941406 343.175781 112.722656 343.417969 111.507812 C 343.660156 110.292969 343.933594 109.085938 344.238281 107.886719 C 344.539062 106.6875 344.871094 105.496094 345.234375 104.308594 C 345.59375 103.125 345.984375 101.953125 346.402344 100.785156 C 346.820312 99.621094 347.269531 98.46875 347.742188 97.324219 C 348.21875 96.179688 348.722656 95.050781 349.253906 93.933594 C 349.785156 92.8125 350.339844 91.710938 350.925781 90.617188 C 351.511719 89.527344 352.125 88.453125 352.761719 87.390625 C 353.398438 86.328125 354.0625 85.285156 354.75 84.257812 C 355.441406 83.226562 356.15625 82.21875 356.894531 81.222656 C 357.632812 80.230469 358.394531 79.257812 359.183594 78.300781 C 359.96875 77.34375 360.777344 76.40625 361.609375 75.492188 C 362.441406 74.574219 363.296875 73.679688 364.175781 72.804688 C 365.050781 71.933594 365.949219 71.078125 366.867188 70.25 C 367.785156 69.417969 368.722656 68.613281 369.679688 67.828125 C 370.640625 67.042969 371.617188 66.285156 372.609375 65.546875 C 373.605469 64.8125 374.617188 64.101562 375.648438 63.414062 C 376.679688 62.726562 377.726562 62.066406 378.789062 61.429688 C 379.851562 60.796875 380.929688 60.1875 382.019531 59.605469 C 383.113281 59.023438 384.21875 58.46875 385.339844 57.941406 C 386.457031 57.410156 387.589844 56.910156 388.734375 56.4375 C 389.878906 55.964844 391.035156 55.523438 392.199219 55.105469 C 393.367188 54.691406 394.542969 54.304688 395.726562 53.945312 C 396.914062 53.589844 398.105469 53.257812 399.304688 52.960938 C 400.507812 52.660156 401.714844 52.390625 402.929688 52.152344 C 404.144531 51.910156 405.363281 51.699219 406.589844 51.519531 C 407.8125 51.339844 409.042969 51.1875 410.273438 51.070312 C 411.507812 50.949219 412.742188 50.859375 413.976562 50.800781 C 415.214844 50.742188 416.449219 50.710938 417.6875 50.710938 Z M 342.058594 201.8125 L 337.214844 201.8125 C 337.839844 200.757812 338.464844 199.703125 339.050781 198.648438 Z M 248.851562 168.609375 C 248.851562 167.523438 248.90625 166.4375 249.011719 165.355469 C 249.117188 164.273438 249.277344 163.199219 249.488281 162.132812 C 249.703125 161.066406 249.964844 160.011719 250.28125 158.96875 C 250.597656 157.929688 250.964844 156.90625 251.378906 155.902344 C 251.796875 154.898438 252.261719 153.914062 252.773438 152.957031 C 253.285156 151.996094 253.84375 151.066406 254.449219 150.160156 C 255.050781 149.257812 255.699219 148.386719 256.390625 147.542969 C 257.078125 146.703125 257.808594 145.898438 258.578125 145.128906 C 259.347656 144.359375 260.152344 143.632812 260.992188 142.941406 C 261.832031 142.25 262.703125 141.605469 263.609375 141 C 264.511719 140.398438 265.445312 139.839844 266.402344 139.324219 C 267.363281 138.8125 268.34375 138.347656 269.351562 137.933594 C 270.355469 137.515625 271.378906 137.148438 272.417969 136.835938 C 273.457031 136.519531 274.511719 136.253906 275.578125 136.042969 C 276.644531 135.832031 277.71875 135.671875 278.800781 135.566406 C 279.882812 135.457031 280.96875 135.40625 282.058594 135.40625 C 283.144531 135.40625 284.230469 135.457031 285.3125 135.566406 C 286.394531 135.671875 287.46875 135.832031 288.535156 136.042969 C 289.601562 136.253906 290.65625 136.519531 291.695312 136.835938 C 292.734375 137.148438 293.757812 137.515625 294.761719 137.933594 C 295.769531 138.347656 296.75 138.8125 297.710938 139.324219 C 298.667969 139.839844 299.601562 140.398438 300.503906 141 C 301.410156 141.605469 302.28125 142.25 303.121094 142.941406 C 303.960938 143.632812 304.765625 144.359375 305.535156 145.128906 C 306.304688 145.898438 307.035156 146.703125 307.722656 147.542969 C 308.414062 148.386719 309.0625 149.257812 309.664062 150.160156 C 310.269531 151.066406 310.828125 151.996094 311.339844 152.957031 C 311.851562 153.914062 312.316406 154.898438 312.734375 155.902344 C 313.148438 156.90625 313.515625 157.929688 313.832031 158.96875 C 314.148438 160.011719 314.410156 161.066406 314.625 162.132812 C 314.835938 163.199219 314.996094 164.273438 315.101562 165.355469 C 315.207031 166.4375 315.261719 167.523438 315.261719 168.609375 C 315.261719 169.695312 315.207031 170.78125 315.101562 171.863281 C 314.996094 172.945312 314.835938 174.019531 314.625 175.085938 C 314.410156 176.152344 314.148438 177.207031 313.832031 178.25 C 313.515625 179.289062 313.148438 180.3125 312.734375 181.316406 C 312.316406 182.320312 311.851562 183.304688 311.339844 184.261719 C 310.828125 185.222656 310.269531 186.152344 309.664062 187.058594 C 309.0625 187.960938 308.414062 188.832031 307.722656 189.675781 C 307.035156 190.515625 306.304688 191.320312 305.535156 192.089844 C 304.765625 192.859375 303.960938 193.585938 303.121094 194.277344 C 302.28125 194.96875 301.410156 195.613281 300.503906 196.21875 C 299.601562 196.824219 298.667969 197.382812 297.710938 197.894531 C 296.75 198.40625 295.769531 198.871094 294.761719 199.285156 C 293.757812 199.703125 292.734375 200.070312 291.695312 200.382812 C 290.65625 200.699219 289.601562 200.964844 288.535156 201.175781 C 287.46875 201.386719 286.394531 201.546875 285.3125 201.65625 C 284.230469 201.761719 283.144531 201.8125 282.058594 201.8125 C 280.96875 201.8125 279.886719 201.757812 278.804688 201.652344 C 277.722656 201.542969 276.648438 201.382812 275.582031 201.167969 C 274.515625 200.957031 273.460938 200.691406 272.421875 200.375 C 271.382812 200.058594 270.359375 199.691406 269.355469 199.277344 C 268.351562 198.859375 267.371094 198.394531 266.410156 197.882812 C 265.453125 197.371094 264.523438 196.8125 263.617188 196.207031 C 262.714844 195.601562 261.84375 194.953125 261.003906 194.265625 C 260.160156 193.574219 259.359375 192.847656 258.589844 192.078125 C 257.820312 191.308594 257.089844 190.503906 256.402344 189.664062 C 255.710938 188.824219 255.0625 187.953125 254.460938 187.046875 C 253.855469 186.144531 253.296875 185.214844 252.785156 184.253906 C 252.269531 183.296875 251.804688 182.316406 251.390625 181.308594 C 250.972656 180.304688 250.605469 179.285156 250.289062 178.242188 C 249.972656 177.203125 249.710938 176.152344 249.496094 175.085938 C 249.285156 174.019531 249.121094 172.945312 249.015625 171.863281 C 248.90625 170.78125 248.851562 169.695312 248.851562 168.609375 Z M 589.574219 493.195312 L 210.648438 493.195312 L 210.648438 233.066406 L 589.574219 233.066406 Z M 749.347656 505.1875 L 620.824219 430.96875 L 620.824219 295.21875 L 749.347656 220.996094 Z M 749.347656 505.1875 " fill-opacity="1" fill-rule="nonzero"/><path fill="#ffffff" d="M 292.683594 363.230469 C 292.683594 364.992188 292.726562 366.75 292.816406 368.511719 C 292.902344 370.269531 293.035156 372.027344 293.207031 373.78125 C 293.382812 375.53125 293.597656 377.28125 293.859375 379.023438 C 294.117188 380.765625 294.421875 382.5 294.765625 384.226562 C 295.113281 385.957031 295.5 387.675781 295.929688 389.382812 C 296.359375 391.089844 296.828125 392.789062 297.339844 394.472656 C 297.855469 396.160156 298.40625 397.832031 299.003906 399.488281 C 299.597656 401.148438 300.234375 402.789062 300.910156 404.417969 C 301.582031 406.042969 302.296875 407.652344 303.054688 409.246094 C 303.808594 410.839844 304.601562 412.410156 305.433594 413.964844 C 306.265625 415.515625 307.132812 417.046875 308.042969 418.558594 C 308.949219 420.070312 309.890625 421.554688 310.871094 423.019531 C 311.851562 424.484375 312.867188 425.921875 313.917969 427.335938 C 314.96875 428.75 316.054688 430.140625 317.171875 431.5 C 318.289062 432.859375 319.441406 434.191406 320.625 435.496094 C 321.8125 436.800781 323.027344 438.074219 324.273438 439.320312 C 325.519531 440.566406 326.796875 441.777344 328.101562 442.960938 C 329.410156 444.140625 330.746094 445.292969 332.105469 446.40625 C 333.46875 447.523438 334.859375 448.605469 336.277344 449.65625 C 337.691406 450.703125 339.132812 451.714844 340.597656 452.691406 C 342.0625 453.671875 343.554688 454.609375 345.066406 455.515625 C 346.578125 456.417969 348.109375 457.285156 349.664062 458.113281 C 351.21875 458.945312 352.792969 459.734375 354.386719 460.484375 C 355.980469 461.238281 357.589844 461.949219 359.21875 462.621094 C 360.847656 463.292969 362.492188 463.925781 364.148438 464.519531 C 365.808594 465.109375 367.484375 465.660156 369.167969 466.171875 C 370.855469 466.679688 372.554688 467.148438 374.261719 467.574219 C 375.972656 468 377.691406 468.386719 379.417969 468.726562 C 381.148438 469.070312 382.882812 469.367188 384.625 469.625 C 386.367188 469.882812 388.117188 470.09375 389.871094 470.265625 C 391.625 470.4375 393.378906 470.566406 395.140625 470.648438 C 396.898438 470.734375 398.660156 470.773438 400.421875 470.773438 C 402.183594 470.773438 403.945312 470.726562 405.703125 470.636719 C 407.464844 470.550781 409.21875 470.417969 410.972656 470.242188 C 412.726562 470.070312 414.472656 469.851562 416.214844 469.589844 C 417.957031 469.332031 419.695312 469.027344 421.421875 468.679688 C 423.148438 468.335938 424.867188 467.949219 426.574219 467.519531 C 428.285156 467.089844 429.980469 466.617188 431.664062 466.101562 C 433.351562 465.589844 435.023438 465.035156 436.679688 464.441406 C 438.339844 463.84375 439.980469 463.207031 441.609375 462.53125 C 443.234375 461.855469 444.84375 461.140625 446.4375 460.386719 C 448.027344 459.628906 449.597656 458.835938 451.152344 458.003906 C 452.703125 457.171875 454.234375 456.300781 455.746094 455.394531 C 457.257812 454.488281 458.742188 453.542969 460.207031 452.5625 C 461.671875 451.582031 463.109375 450.566406 464.523438 449.515625 C 465.9375 448.464844 467.324219 447.378906 468.683594 446.257812 C 470.042969 445.140625 471.375 443.988281 472.679688 442.804688 C 473.984375 441.617188 475.257812 440.402344 476.503906 439.15625 C 477.746094 437.90625 478.960938 436.628906 480.140625 435.324219 C 481.324219 434.015625 482.472656 432.679688 483.585938 431.316406 C 484.703125 429.953125 485.785156 428.566406 486.832031 427.148438 C 487.878906 425.730469 488.890625 424.289062 489.867188 422.824219 C 490.84375 421.359375 491.785156 419.871094 492.691406 418.355469 C 493.59375 416.84375 494.460938 415.3125 495.289062 413.757812 C 496.117188 412.203125 496.90625 410.628906 497.65625 409.035156 C 498.40625 407.441406 499.121094 405.828125 499.792969 404.199219 C 500.464844 402.570312 501.09375 400.929688 501.6875 399.269531 C 502.277344 397.609375 502.828125 395.9375 503.335938 394.25 C 503.847656 392.5625 504.3125 390.863281 504.738281 389.15625 C 505.164062 387.445312 505.546875 385.726562 505.890625 384 C 506.230469 382.269531 506.527344 380.535156 506.785156 378.792969 C 507.042969 377.046875 507.253906 375.300781 507.425781 373.546875 C 507.59375 371.792969 507.722656 370.035156 507.804688 368.277344 C 507.890625 366.515625 507.929688 364.757812 507.925781 362.996094 C 507.925781 361.234375 507.878906 359.472656 507.789062 357.710938 C 507.703125 355.953125 507.570312 354.195312 507.394531 352.445312 C 507.21875 350.691406 507 348.941406 506.738281 347.199219 C 506.476562 345.457031 506.175781 343.722656 505.828125 341.996094 C 505.480469 340.269531 505.09375 338.550781 504.664062 336.84375 C 504.230469 335.132812 503.761719 333.4375 503.246094 331.753906 C 502.730469 330.066406 502.175781 328.394531 501.582031 326.738281 C 500.984375 325.082031 500.347656 323.4375 499.671875 321.8125 C 498.996094 320.183594 498.277344 318.578125 497.523438 316.984375 C 496.765625 315.394531 495.972656 313.820312 495.140625 312.269531 C 494.308594 310.714844 493.4375 309.1875 492.527344 307.675781 C 491.621094 306.167969 490.675781 304.679688 489.695312 303.214844 C 488.714844 301.753906 487.699219 300.316406 486.644531 298.902344 C 485.59375 297.488281 484.507812 296.101562 483.386719 294.742188 C 482.269531 293.382812 481.117188 292.050781 479.929688 290.746094 C 478.746094 289.441406 477.527344 288.167969 476.28125 286.925781 C 475.035156 285.683594 473.757812 284.46875 472.449219 283.289062 C 471.140625 282.109375 469.804688 280.960938 468.441406 279.84375 C 467.078125 278.730469 465.6875 277.648438 464.273438 276.601562 C 462.855469 275.554688 461.414062 274.542969 459.945312 273.566406 C 458.480469 272.589844 456.992188 271.648438 455.476562 270.746094 C 453.964844 269.84375 452.429688 268.976562 450.875 268.148438 C 449.320312 267.320312 447.746094 266.53125 446.152344 265.78125 C 444.558594 265.03125 442.949219 264.320312 441.320312 263.648438 C 439.691406 262.976562 438.046875 262.347656 436.386719 261.757812 C 434.726562 261.164062 433.054688 260.617188 431.367188 260.109375 C 429.679688 259.597656 427.980469 259.132812 426.273438 258.707031 C 424.5625 258.28125 422.84375 257.898438 421.113281 257.558594 C 419.386719 257.21875 417.648438 256.921875 415.90625 256.664062 C 414.164062 256.410156 412.414062 256.195312 410.660156 256.027344 C 408.910156 255.859375 407.152344 255.730469 405.390625 255.648438 C 403.632812 255.566406 401.871094 255.523438 400.109375 255.527344 C 398.351562 255.53125 396.589844 255.582031 394.835938 255.671875 C 393.078125 255.765625 391.324219 255.898438 389.574219 256.074219 C 387.820312 256.253906 386.078125 256.472656 384.335938 256.734375 C 382.597656 256.996094 380.863281 257.304688 379.140625 257.652344 C 377.414062 258 375.699219 258.386719 373.992188 258.820312 C 372.289062 259.25 370.59375 259.722656 368.910156 260.238281 C 367.226562 260.753906 365.558594 261.308594 363.902344 261.90625 C 362.25 262.5 360.609375 263.136719 358.984375 263.816406 C 357.359375 264.492188 355.753906 265.207031 354.164062 265.964844 C 352.574219 266.71875 351.003906 267.511719 349.457031 268.34375 C 347.90625 269.175781 346.375 270.046875 344.867188 270.953125 C 343.359375 271.863281 341.875 272.804688 340.414062 273.785156 C 338.953125 274.765625 337.515625 275.78125 336.105469 276.832031 C 334.695312 277.882812 333.308594 278.964844 331.949219 280.085938 C 330.589844 281.203125 329.261719 282.351562 327.957031 283.535156 C 326.65625 284.71875 325.382812 285.933594 324.140625 287.179688 C 322.898438 288.425781 321.6875 289.703125 320.507812 291.007812 C 319.328125 292.3125 318.179688 293.644531 317.066406 295.007812 C 315.949219 296.367188 314.871094 297.757812 313.824219 299.171875 C 312.777344 300.585938 311.765625 302.023438 310.789062 303.488281 C 309.8125 304.953125 308.871094 306.4375 307.96875 307.949219 C 307.066406 309.457031 306.199219 310.988281 305.371094 312.542969 C 304.542969 314.09375 303.753906 315.667969 303 317.257812 C 302.25 318.847656 301.539062 320.457031 300.863281 322.082031 C 300.191406 323.707031 299.558594 325.351562 298.96875 327.007812 C 298.375 328.664062 297.824219 330.335938 297.3125 332.019531 C 296.804688 333.703125 296.335938 335.398438 295.90625 337.105469 C 295.480469 338.8125 295.09375 340.527344 294.75 342.253906 C 294.40625 343.980469 294.109375 345.710938 293.847656 347.453125 C 293.589844 349.195312 293.375 350.941406 293.203125 352.691406 C 293.03125 354.441406 292.898438 356.195312 292.8125 357.953125 C 292.726562 359.710938 292.683594 361.46875 292.683594 363.230469 Z M 476.675781 363.230469 C 476.675781 364.476562 476.644531 365.726562 476.582031 366.972656 C 476.519531 368.222656 476.425781 369.464844 476.300781 370.707031 C 476.175781 371.953125 476.023438 373.191406 475.839844 374.425781 C 475.65625 375.660156 475.441406 376.890625 475.195312 378.117188 C 474.949219 379.339844 474.675781 380.558594 474.371094 381.769531 C 474.066406 382.980469 473.734375 384.183594 473.371094 385.378906 C 473.007812 386.574219 472.613281 387.757812 472.191406 388.933594 C 471.769531 390.109375 471.320312 391.273438 470.839844 392.429688 C 470.363281 393.582031 469.855469 394.722656 469.320312 395.851562 C 468.785156 396.980469 468.222656 398.09375 467.636719 399.195312 C 467.046875 400.296875 466.429688 401.382812 465.785156 402.453125 C 465.144531 403.523438 464.476562 404.578125 463.78125 405.617188 C 463.085938 406.65625 462.367188 407.675781 461.621094 408.679688 C 460.878906 409.679688 460.109375 410.664062 459.316406 411.628906 C 458.523438 412.59375 457.707031 413.539062 456.867188 414.464844 C 456.03125 415.390625 455.167969 416.292969 454.285156 417.175781 C 453.402344 418.058594 452.496094 418.917969 451.570312 419.757812 C 450.644531 420.597656 449.699219 421.410156 448.734375 422.203125 C 447.769531 422.996094 446.785156 423.761719 445.78125 424.507812 C 444.777344 425.25 443.753906 425.96875 442.714844 426.664062 C 441.679688 427.355469 440.625 428.023438 439.550781 428.664062 C 438.480469 429.308594 437.394531 429.921875 436.292969 430.511719 C 435.191406 431.101562 434.074219 431.660156 432.945312 432.195312 C 431.816406 432.730469 430.675781 433.234375 429.523438 433.710938 C 428.367188 434.191406 427.203125 434.640625 426.027344 435.058594 C 424.851562 435.480469 423.664062 435.871094 422.46875 436.234375 C 421.273438 436.597656 420.070312 436.929688 418.859375 437.234375 C 417.648438 437.535156 416.429688 437.808594 415.207031 438.054688 C 413.980469 438.296875 412.75 438.511719 411.515625 438.695312 C 410.28125 438.878906 409.039062 439.03125 407.796875 439.152344 C 406.554688 439.277344 405.308594 439.367188 404.0625 439.429688 C 402.816406 439.492188 401.566406 439.523438 400.316406 439.523438 C 399.070312 439.523438 397.820312 439.492188 396.574219 439.429688 C 395.324219 439.371094 394.082031 439.277344 392.835938 439.15625 C 391.59375 439.035156 390.355469 438.882812 389.121094 438.699219 C 387.886719 438.515625 386.65625 438.300781 385.429688 438.058594 C 384.203125 437.816406 382.984375 437.542969 381.773438 437.238281 C 380.5625 436.9375 379.359375 436.605469 378.164062 436.242188 C 376.96875 435.878906 375.785156 435.488281 374.605469 435.070312 C 373.429688 434.648438 372.265625 434.199219 371.113281 433.722656 C 369.957031 433.246094 368.816406 432.738281 367.6875 432.207031 C 366.558594 431.671875 365.441406 431.113281 364.339844 430.523438 C 363.238281 429.933594 362.152344 429.320312 361.082031 428.679688 C 360.007812 428.039062 358.953125 427.371094 357.914062 426.675781 C 356.875 425.984375 355.855469 425.265625 354.851562 424.523438 C 353.847656 423.777344 352.863281 423.011719 351.898438 422.21875 C 350.929688 421.429688 349.984375 420.613281 349.058594 419.773438 C 348.132812 418.9375 347.226562 418.078125 346.34375 417.195312 C 345.460938 416.3125 344.597656 415.410156 343.757812 414.484375 C 342.917969 413.558594 342.101562 412.613281 341.308594 411.648438 C 340.515625 410.683594 339.746094 409.703125 339.003906 408.699219 C 338.257812 407.695312 337.539062 406.675781 336.84375 405.636719 C 336.148438 404.601562 335.480469 403.546875 334.835938 402.476562 C 334.195312 401.40625 333.578125 400.320312 332.988281 399.21875 C 332.398438 398.117188 331.835938 397.003906 331.300781 395.875 C 330.765625 394.746094 330.257812 393.605469 329.777344 392.453125 C 329.300781 391.296875 328.847656 390.132812 328.425781 388.957031 C 328.003906 387.78125 327.613281 386.597656 327.246094 385.402344 C 326.882812 384.207031 326.550781 383.003906 326.246094 381.792969 C 325.941406 380.582031 325.664062 379.367188 325.417969 378.140625 C 325.175781 376.917969 324.960938 375.6875 324.773438 374.449219 C 324.589844 373.214844 324.433594 371.976562 324.3125 370.734375 C 324.1875 369.492188 324.09375 368.246094 324.03125 367 C 323.96875 365.75 323.9375 364.503906 323.933594 363.253906 C 323.933594 362.003906 323.960938 360.757812 324.019531 359.511719 C 324.082031 358.261719 324.171875 357.015625 324.289062 355.773438 C 324.410156 354.53125 324.5625 353.292969 324.742188 352.054688 C 324.925781 350.820312 325.136719 349.589844 325.378906 348.363281 C 325.621094 347.140625 325.890625 345.921875 326.195312 344.707031 C 326.496094 343.496094 326.828125 342.292969 327.1875 341.097656 C 327.546875 339.902344 327.9375 338.714844 328.355469 337.539062 C 328.777344 336.363281 329.222656 335.195312 329.699219 334.042969 C 330.175781 332.886719 330.679688 331.746094 331.210938 330.613281 C 331.742188 329.484375 332.300781 328.367188 332.890625 327.265625 C 333.476562 326.164062 334.089844 325.078125 334.730469 324.003906 C 335.371094 322.933594 336.035156 321.875 336.726562 320.835938 C 337.421875 319.796875 338.136719 318.773438 338.878906 317.769531 C 339.621094 316.765625 340.386719 315.78125 341.179688 314.8125 C 341.96875 313.847656 342.78125 312.898438 343.621094 311.972656 C 344.457031 311.042969 345.316406 310.140625 346.195312 309.253906 C 347.078125 308.371094 347.980469 307.507812 348.90625 306.664062 C 349.828125 305.824219 350.773438 305.007812 351.734375 304.214844 C 352.699219 303.417969 353.683594 302.648438 354.683594 301.902344 C 355.683594 301.15625 356.703125 300.4375 357.742188 299.738281 C 358.777344 299.042969 359.832031 298.375 360.902344 297.730469 C 361.972656 297.085938 363.058594 296.46875 364.15625 295.875 C 365.257812 295.285156 366.371094 294.722656 367.5 294.183594 C 368.625 293.648438 369.765625 293.140625 370.917969 292.660156 C 372.074219 292.179688 373.238281 291.726562 374.410156 291.304688 C 375.585938 290.878906 376.769531 290.484375 377.964844 290.121094 C 379.160156 289.753906 380.363281 289.417969 381.574219 289.113281 C 382.785156 288.804688 384 288.53125 385.226562 288.28125 C 386.449219 288.035156 387.679688 287.820312 388.914062 287.632812 C 390.148438 287.449219 391.386719 287.292969 392.628906 287.167969 C 393.875 287.039062 395.117188 286.945312 396.367188 286.882812 C 397.613281 286.816406 398.859375 286.78125 400.109375 286.78125 C 401.359375 286.78125 402.609375 286.8125 403.859375 286.875 C 405.105469 286.9375 406.355469 287.03125 407.597656 287.15625 C 408.84375 287.277344 410.082031 287.433594 411.320312 287.617188 C 412.554688 287.800781 413.785156 288.015625 415.011719 288.261719 C 416.238281 288.507812 417.457031 288.78125 418.671875 289.085938 C 419.882812 289.390625 421.089844 289.726562 422.285156 290.089844 C 423.480469 290.453125 424.667969 290.847656 425.84375 291.269531 C 427.019531 291.691406 428.1875 292.140625 429.339844 292.621094 C 430.496094 293.101562 431.640625 293.609375 432.769531 294.144531 C 433.898438 294.679688 435.015625 295.242188 436.117188 295.832031 C 437.21875 296.421875 438.304688 297.039062 439.378906 297.683594 C 440.449219 298.324219 441.507812 298.996094 442.546875 299.691406 C 443.585938 300.386719 444.605469 301.105469 445.609375 301.851562 C 446.613281 302.597656 447.597656 303.367188 448.5625 304.160156 C 449.53125 304.953125 450.476562 305.769531 451.402344 306.613281 C 452.328125 307.453125 453.234375 308.3125 454.117188 309.199219 C 455 310.082031 455.863281 310.988281 456.703125 311.914062 C 457.539062 312.84375 458.355469 313.789062 459.148438 314.757812 C 459.941406 315.722656 460.710938 316.710938 461.457031 317.714844 C 462.199219 318.71875 462.917969 319.742188 463.613281 320.78125 C 464.308594 321.820312 464.976562 322.875 465.617188 323.949219 C 466.261719 325.023438 466.875 326.109375 467.464844 327.210938 C 468.054688 328.316406 468.617188 329.433594 469.148438 330.5625 C 469.683594 331.691406 470.191406 332.835938 470.667969 333.992188 C 471.148438 335.144531 471.597656 336.3125 472.019531 337.488281 C 472.4375 338.667969 472.832031 339.855469 473.191406 341.050781 C 473.554688 342.246094 473.890625 343.453125 474.191406 344.664062 C 474.496094 345.878906 474.769531 347.097656 475.015625 348.324219 C 475.257812 349.550781 475.472656 350.78125 475.65625 352.019531 C 475.835938 353.253906 475.992188 354.496094 476.113281 355.742188 C 476.234375 356.984375 476.328125 358.230469 476.390625 359.480469 C 476.449219 360.730469 476.480469 361.980469 476.480469 363.230469 Z M 476.675781 363.230469 " fill-opacity="1" fill-rule="nonzero"/><path fill="#ffffff" d="M 361.828125 311.703125 C 360.640625 312.386719 359.5625 313.214844 358.59375 314.183594 C 357.625 315.152344 356.796875 316.230469 356.109375 317.414062 C 355.425781 318.601562 354.90625 319.855469 354.550781 321.179688 C 354.195312 322.503906 354.015625 323.847656 354.011719 325.21875 L 354.011719 401.003906 C 354.011719 402.378906 354.1875 403.726562 354.542969 405.054688 C 354.894531 406.382812 355.414062 407.640625 356.101562 408.832031 C 356.785156 410.019531 357.617188 411.101562 358.585938 412.074219 C 359.558594 413.042969 360.636719 413.875 361.828125 414.558594 C 363.015625 415.246094 364.269531 415.765625 365.59375 416.121094 C 366.917969 416.476562 368.269531 416.652344 369.640625 416.652344 C 371.011719 416.652344 372.359375 416.476562 373.683594 416.121094 C 375.007812 415.765625 376.265625 415.246094 377.453125 414.558594 L 443.121094 376.667969 C 444.308594 375.980469 445.386719 375.152344 446.359375 374.183594 C 447.328125 373.214844 448.15625 372.136719 448.84375 370.949219 C 449.53125 369.757812 450.050781 368.503906 450.40625 367.175781 C 450.761719 365.851562 450.9375 364.503906 450.9375 363.132812 C 450.9375 361.757812 450.761719 360.410156 450.40625 359.085938 C 450.050781 357.761719 449.53125 356.503906 448.84375 355.316406 C 448.15625 354.128906 447.328125 353.046875 446.359375 352.078125 C 445.386719 351.109375 444.308594 350.28125 443.121094 349.59375 L 377.453125 311.703125 C 376.265625 311.015625 375.007812 310.496094 373.683594 310.140625 C 372.359375 309.785156 371.011719 309.609375 369.640625 309.609375 C 368.269531 309.609375 366.917969 309.785156 365.59375 310.140625 C 364.269531 310.496094 363.015625 311.015625 361.828125 311.703125 Z M 385.265625 352.289062 L 404.054688 363.230469 L 385.265625 373.972656 Z M 385.265625 352.289062 " fill-opacity="1" fill-rule="nonzero"/></svg>