<svg xmlns="http://www.w3.org/2000/svg" xmlns:xlink="http://www.w3.org/1999/xlink" width="1280" zoomAndPan="magnify" viewBox="0 0 960 562.499983" height="750" preserveAspectRatio="xMidYMid meet" version="1.0"><defs><clipPath id="50ac5c36cf"><path d="M 0.425781 0 L 959.574219 0 L 959.574219 562 L 0.425781 562 Z M 0.425781 0 " clip-rule="nonzero"/></clipPath><clipPath id="e38b358c34"><path d="M 236.226562 69 L 724 69 L 724 497.378906 L 236.226562 497.378906 Z M 236.226562 69 " clip-rule="nonzero"/></clipPath></defs><g clip-path="url(#50ac5c36cf)"><path fill="#ffffff" d="M 0.425781 0 L 959.574219 0 L 959.574219 562 L 0.425781 562 Z M 0.425781 0 " fill-opacity="1" fill-rule="nonzero"/><path fill="#00854a" d="M 0.425781 0 L 959.574219 0 L 959.574219 562 L 0.425781 562 Z M 0.425781 0 " fill-opacity="1" fill-rule="nonzero"/></g><g clip-path="url(#e38b358c34)"><path fill="#ffffff" d="M 716.933594 199.617188 C 715.972656 199.0625 714.953125 198.640625 713.882812 198.351562 C 712.808594 198.066406 711.71875 197.921875 710.609375 197.921875 C 709.5 197.921875 708.40625 198.066406 707.335938 198.351562 C 706.261719 198.640625 705.246094 199.0625 704.285156 199.617188 L 593.976562 263.292969 L 593.976562 229.558594 C 593.976562 228.726562 593.894531 227.90625 593.730469 227.089844 C 593.570312 226.277344 593.328125 225.484375 593.011719 224.71875 C 592.695312 223.949219 592.304688 223.222656 591.84375 222.53125 C 591.382812 221.839844 590.859375 221.203125 590.269531 220.613281 C 589.683594 220.027344 589.042969 219.503906 588.355469 219.042969 C 587.664062 218.582031 586.933594 218.191406 586.167969 217.875 C 585.398438 217.554688 584.609375 217.316406 583.796875 217.152344 C 582.980469 216.992188 582.160156 216.910156 581.328125 216.910156 L 490.429688 216.910156 C 491.636719 215.707031 492.808594 214.464844 493.941406 213.191406 C 495.074219 211.917969 496.171875 210.613281 497.226562 209.273438 C 498.285156 207.933594 499.300781 206.566406 500.277344 205.164062 C 501.25 203.765625 502.183594 202.339844 503.074219 200.886719 C 503.964844 199.429688 504.8125 197.953125 505.617188 196.449219 C 506.421875 194.941406 507.179688 193.414062 507.890625 191.867188 C 508.605469 190.316406 509.269531 188.746094 509.890625 187.160156 C 510.511719 185.570312 511.082031 183.964844 511.609375 182.339844 C 512.132812 180.71875 512.609375 179.082031 513.039062 177.429688 C 513.464844 175.78125 513.84375 174.117188 514.175781 172.445312 C 514.503906 170.769531 514.785156 169.089844 515.015625 167.398438 C 515.242188 165.707031 515.421875 164.011719 515.554688 162.3125 C 515.683594 160.613281 515.761719 158.910156 515.789062 157.203125 C 515.820312 155.496094 515.796875 153.792969 515.726562 152.089844 C 515.652344 150.386719 515.53125 148.683594 515.359375 146.988281 C 515.183594 145.289062 514.960938 143.601562 514.6875 141.917969 C 514.417969 140.234375 514.09375 138.558594 513.722656 136.894531 C 513.351562 135.230469 512.929688 133.578125 512.457031 131.9375 C 511.988281 130.300781 511.472656 128.675781 510.90625 127.066406 C 510.339844 125.457031 509.726562 123.867188 509.066406 122.292969 C 508.40625 120.722656 507.699219 119.167969 506.945312 117.636719 C 506.195312 116.109375 505.398438 114.601562 504.554688 113.117188 C 503.714844 111.632812 502.828125 110.175781 501.902344 108.746094 C 500.972656 107.3125 500.003906 105.910156 498.992188 104.535156 C 497.984375 103.164062 496.933594 101.820312 495.84375 100.507812 C 494.753906 99.195312 493.625 97.917969 492.457031 96.675781 C 491.292969 95.429688 490.089844 94.21875 488.851562 93.046875 C 487.613281 91.871094 486.34375 90.738281 485.039062 89.636719 C 483.734375 88.539062 482.398438 87.480469 481.03125 86.460938 C 479.664062 85.441406 478.265625 84.464844 476.839844 83.527344 C 475.414062 82.59375 473.960938 81.699219 472.484375 80.847656 C 471.007812 79.996094 469.503906 79.191406 467.976562 78.429688 C 466.453125 77.667969 464.902344 76.953125 463.335938 76.28125 C 461.765625 75.613281 460.179688 74.988281 458.574219 74.414062 C 456.96875 73.835938 455.347656 73.308594 453.710938 72.828125 C 452.074219 72.347656 450.425781 71.917969 448.761719 71.535156 C 447.101562 71.152344 445.429688 70.820312 443.746094 70.539062 C 442.066406 70.253906 440.375 70.019531 438.679688 69.835938 C 436.984375 69.652344 435.285156 69.519531 433.582031 69.4375 C 431.878906 69.355469 430.171875 69.324219 428.46875 69.34375 C 426.761719 69.359375 425.058594 69.429688 423.355469 69.546875 C 421.65625 69.667969 419.960938 69.835938 418.269531 70.054688 C 416.578125 70.277344 414.894531 70.546875 413.21875 70.863281 C 411.542969 71.183594 409.878906 71.554688 408.222656 71.972656 C 406.570312 72.386719 404.929688 72.855469 403.304688 73.371094 C 401.679688 73.886719 400.070312 74.449219 398.476562 75.058594 C 396.882812 75.667969 395.308594 76.324219 393.757812 77.027344 C 392.203125 77.730469 390.671875 78.480469 389.160156 79.273438 C 387.652344 80.070312 386.167969 80.90625 384.707031 81.789062 C 383.25 82.671875 381.816406 83.597656 380.410156 84.5625 C 379.003906 85.53125 377.628906 86.539062 376.285156 87.585938 C 374.9375 88.632812 373.625 89.722656 372.34375 90.847656 C 371.0625 91.972656 369.816406 93.136719 368.605469 94.335938 C 367.394531 95.535156 366.21875 96.769531 365.078125 98.039062 C 363.941406 99.308594 362.839844 100.613281 361.777344 101.945312 C 360.714844 103.28125 359.695312 104.644531 358.710938 106.042969 C 357.730469 107.4375 356.792969 108.859375 355.894531 110.308594 C 355 111.761719 354.144531 113.238281 353.335938 114.738281 C 352.527344 116.238281 351.761719 117.765625 351.042969 119.308594 C 350.324219 120.855469 349.652344 122.421875 349.023438 124.011719 C 348.398438 125.597656 347.820312 127.199219 347.289062 128.820312 C 346.757812 130.441406 346.273438 132.078125 345.839844 133.726562 C 345.402344 135.375 345.019531 137.035156 344.683594 138.707031 C 344.347656 140.378906 344.058594 142.0625 343.824219 143.75 C 342.574219 143.097656 341.300781 142.496094 340 141.945312 C 338.703125 141.394531 337.382812 140.898438 336.046875 140.457031 C 334.707031 140.015625 333.351562 139.628906 331.980469 139.296875 C 330.613281 138.960938 329.230469 138.6875 327.839844 138.464844 C 326.445312 138.246094 325.046875 138.082031 323.640625 137.976562 C 322.234375 137.867188 320.828125 137.820312 319.417969 137.828125 C 318.007812 137.835938 316.601562 137.898438 315.195312 138.019531 C 313.789062 138.144531 312.394531 138.320312 311.003906 138.558594 C 309.613281 138.792969 308.234375 139.085938 306.867188 139.433594 C 305.503906 139.78125 304.152344 140.183594 302.820312 140.640625 C 301.484375 141.097656 300.171875 141.605469 298.878906 142.171875 C 297.585938 142.734375 296.320312 143.347656 295.078125 144.015625 C 293.835938 144.683594 292.621094 145.398438 291.4375 146.164062 C 290.253906 146.929688 289.101562 147.742188 287.984375 148.601562 C 286.867188 149.457031 285.785156 150.359375 284.738281 151.308594 C 283.695312 152.253906 282.691406 153.242188 281.726562 154.269531 C 280.761719 155.296875 279.839844 156.363281 278.960938 157.46875 C 278.082031 158.570312 277.25 159.707031 276.464844 160.878906 C 275.679688 162.046875 274.941406 163.25 274.253906 164.480469 C 273.566406 165.710938 272.929688 166.964844 272.34375 168.25 C 271.757812 169.53125 271.222656 170.835938 270.742188 172.160156 C 270.261719 173.484375 269.835938 174.828125 269.464844 176.1875 C 269.09375 177.546875 268.78125 178.921875 268.519531 180.308594 C 268.261719 181.691406 268.058594 183.085938 267.910156 184.488281 C 267.765625 185.890625 267.675781 187.296875 267.640625 188.707031 C 267.609375 190.117188 267.636719 191.523438 267.71875 192.933594 C 267.800781 194.339844 267.9375 195.742188 268.132812 197.136719 C 268.332031 198.535156 268.582031 199.921875 268.890625 201.296875 C 269.199219 202.671875 269.5625 204.03125 269.984375 205.378906 C 270.402344 206.722656 270.875 208.050781 271.402344 209.359375 C 271.929688 210.667969 272.507812 211.953125 273.136719 213.210938 C 273.769531 214.472656 274.449219 215.707031 275.183594 216.910156 L 249.351562 216.910156 C 248.519531 216.910156 247.699219 216.992188 246.882812 217.152344 C 246.070312 217.316406 245.277344 217.554688 244.511719 217.875 C 243.746094 218.191406 243.015625 218.582031 242.324219 219.042969 C 241.636719 219.503906 240.996094 220.027344 240.410156 220.613281 C 239.820312 221.203125 239.296875 221.839844 238.835938 222.53125 C 238.375 223.222656 237.984375 223.949219 237.667969 224.71875 C 237.351562 225.484375 237.109375 226.277344 236.949219 227.089844 C 236.785156 227.90625 236.703125 228.726562 236.703125 229.558594 L 236.703125 465.386719 C 236.703125 466.21875 236.785156 467.039062 236.949219 467.855469 C 237.109375 468.667969 237.351562 469.460938 237.667969 470.226562 C 237.984375 470.996094 238.375 471.722656 238.835938 472.414062 C 239.296875 473.105469 239.820312 473.742188 240.410156 474.328125 C 240.996094 474.917969 241.636719 475.441406 242.324219 475.902344 C 243.015625 476.363281 243.746094 476.753906 244.511719 477.070312 C 245.277344 477.390625 246.070312 477.628906 246.882812 477.789062 C 247.699219 477.953125 248.519531 478.035156 249.351562 478.035156 L 581.328125 478.035156 C 582.160156 478.035156 582.980469 477.953125 583.796875 477.789062 C 584.609375 477.628906 585.402344 477.390625 586.167969 477.070312 C 586.933594 476.753906 587.664062 476.363281 588.355469 475.902344 C 589.042969 475.441406 589.683594 474.917969 590.269531 474.328125 C 590.859375 473.742188 591.382812 473.105469 591.84375 472.414062 C 592.304688 471.722656 592.695312 470.992188 593.011719 470.226562 C 593.328125 469.460938 593.570312 468.667969 593.730469 467.855469 C 593.894531 467.039062 593.976562 466.21875 593.976562 465.386719 L 593.976562 431.621094 L 704.316406 495.328125 C 705.277344 495.882812 706.296875 496.304688 707.367188 496.59375 C 708.441406 496.878906 709.53125 497.023438 710.640625 497.023438 C 711.75 497.023438 712.839844 496.878906 713.914062 496.59375 C 714.984375 496.304688 716.003906 495.882812 716.964844 495.328125 C 717.925781 494.773438 718.800781 494.101562 719.585938 493.316406 C 720.371094 492.527344 721.042969 491.65625 721.597656 490.691406 C 722.152344 489.726562 722.574219 488.710938 722.859375 487.636719 C 723.144531 486.5625 723.289062 485.46875 723.289062 484.355469 L 723.289062 210.554688 C 723.285156 209.445312 723.136719 208.355469 722.847656 207.28125 C 722.558594 206.210938 722.132812 205.195312 721.574219 204.234375 C 721.019531 203.273438 720.34375 202.402344 719.558594 201.621094 C 718.769531 200.835938 717.894531 200.167969 716.933594 199.617188 Z M 429.566406 94.617188 C 431.570312 94.621094 433.566406 94.726562 435.558594 94.925781 C 437.546875 95.128906 439.523438 95.425781 441.488281 95.820312 C 443.449219 96.21875 445.386719 96.707031 447.300781 97.292969 C 449.214844 97.878906 451.09375 98.558594 452.941406 99.328125 C 454.789062 100.097656 456.59375 100.957031 458.359375 101.902344 C 460.121094 102.851562 461.832031 103.882812 463.496094 105 C 465.15625 106.113281 466.761719 107.308594 468.304688 108.582031 C 469.847656 109.855469 471.328125 111.203125 472.738281 112.621094 C 474.152344 114.039062 475.492188 115.523438 476.757812 117.070312 C 478.023438 118.621094 479.210938 120.230469 480.320312 121.898438 C 481.429688 123.5625 482.453125 125.28125 483.394531 127.046875 C 484.332031 128.8125 485.183594 130.621094 485.945312 132.472656 C 486.710938 134.324219 487.378906 136.207031 487.957031 138.125 C 488.535156 140.039062 489.015625 141.980469 489.402344 143.945312 C 489.789062 145.910156 490.078125 147.886719 490.273438 149.878906 C 490.464844 151.871094 490.558594 153.867188 490.554688 155.871094 C 490.550781 157.871094 490.449219 159.867188 490.25 161.859375 C 490.050781 163.851562 489.753906 165.828125 489.363281 167.789062 C 488.96875 169.753906 488.480469 171.691406 487.894531 173.605469 C 487.3125 175.519531 486.636719 177.402344 485.867188 179.25 C 485.097656 181.097656 484.238281 182.902344 483.292969 184.667969 C 482.347656 186.429688 481.316406 188.144531 480.203125 189.804688 C 479.089844 191.46875 477.894531 193.074219 476.625 194.617188 C 475.351562 196.164062 474.007812 197.644531 472.589844 199.058594 C 471.171875 200.46875 469.691406 201.8125 468.140625 203.078125 C 466.59375 204.347656 464.984375 205.535156 463.320312 206.644531 C 461.65625 207.753906 459.9375 208.78125 458.171875 209.722656 C 456.40625 210.664062 454.597656 211.515625 452.75 212.28125 C 450.898438 213.046875 449.015625 213.71875 447.097656 214.296875 C 445.183594 214.875 443.242188 215.359375 441.28125 215.746094 C 439.316406 216.136719 437.339844 216.425781 435.347656 216.621094 C 433.355469 216.816406 431.359375 216.914062 429.355469 216.910156 C 427.355469 216.910156 425.359375 216.808594 423.367188 216.613281 C 421.375 216.414062 419.398438 216.117188 417.433594 215.726562 C 415.472656 215.335938 413.535156 214.847656 411.617188 214.265625 C 409.703125 213.683594 407.820312 213.007812 405.972656 212.242188 C 404.125 211.472656 402.316406 210.617188 400.554688 209.671875 C 398.789062 208.730469 397.074219 207.699219 395.410156 206.585938 C 393.746094 205.472656 392.140625 204.28125 390.59375 203.011719 C 389.046875 201.742188 387.566406 200.398438 386.152344 198.984375 C 384.738281 197.566406 383.398438 196.085938 382.128906 194.539062 C 380.859375 192.988281 379.667969 191.382812 378.554688 189.71875 C 377.445312 188.054688 376.417969 186.339844 375.476562 184.574219 C 374.53125 182.808594 373.675781 181 372.910156 179.152344 C 372.144531 177.300781 371.472656 175.421875 370.890625 173.503906 C 370.3125 171.589844 369.828125 169.648438 369.4375 167.6875 C 369.046875 165.722656 368.753906 163.746094 368.554688 161.753906 C 368.359375 159.761719 368.261719 157.765625 368.261719 155.765625 C 368.265625 153.757812 368.367188 151.757812 368.566406 149.765625 C 368.765625 147.769531 369.0625 145.789062 369.457031 143.820312 C 369.851562 141.855469 370.339844 139.914062 370.925781 137.996094 C 371.511719 136.078125 372.1875 134.195312 372.957031 132.34375 C 373.726562 130.492188 374.585938 128.683594 375.535156 126.914062 C 376.480469 125.148438 377.511719 123.429688 378.628906 121.765625 C 379.746094 120.101562 380.941406 118.492188 382.214844 116.945312 C 383.488281 115.398438 384.835938 113.914062 386.253906 112.5 C 387.675781 111.082031 389.160156 109.738281 390.710938 108.46875 C 392.265625 107.199219 393.875 106.007812 395.542969 104.898438 C 397.210938 103.785156 398.929688 102.757812 400.699219 101.8125 C 402.46875 100.871094 404.28125 100.015625 406.132812 99.25 C 407.988281 98.488281 409.875 97.8125 411.792969 97.234375 C 413.710938 96.65625 415.65625 96.167969 417.621094 95.78125 C 419.589844 95.390625 421.570312 95.101562 423.566406 94.90625 C 425.5625 94.710938 427.5625 94.613281 429.566406 94.617188 Z M 368.355469 216.910156 L 364.4375 216.910156 C 364.941406 216.058594 365.449219 215.203125 365.921875 214.351562 Z M 292.917969 190.035156 C 292.917969 189.15625 292.960938 188.277344 293.050781 187.402344 C 293.136719 186.527344 293.265625 185.65625 293.4375 184.792969 C 293.609375 183.929688 293.820312 183.078125 294.078125 182.234375 C 294.332031 181.394531 294.628906 180.566406 294.964844 179.753906 C 295.300781 178.9375 295.679688 178.144531 296.09375 177.367188 C 296.507812 176.59375 296.960938 175.839844 297.449219 175.105469 C 297.9375 174.375 298.460938 173.667969 299.019531 172.988281 C 299.578125 172.308594 300.167969 171.65625 300.789062 171.035156 C 301.414062 170.410156 302.066406 169.820312 302.746094 169.261719 C 303.425781 168.703125 304.132812 168.179688 304.863281 167.691406 C 305.59375 167.203125 306.347656 166.75 307.125 166.335938 C 307.902344 165.921875 308.695312 165.546875 309.507812 165.207031 C 310.324219 164.871094 311.148438 164.574219 311.992188 164.320312 C 312.835938 164.0625 313.6875 163.851562 314.550781 163.679688 C 315.414062 163.507812 316.285156 163.378906 317.160156 163.292969 C 318.035156 163.207031 318.914062 163.164062 319.792969 163.164062 C 320.675781 163.164062 321.550781 163.207031 322.429688 163.292969 C 323.304688 163.378906 324.171875 163.507812 325.035156 163.679688 C 325.898438 163.851562 326.753906 164.0625 327.59375 164.320312 C 328.4375 164.574219 329.265625 164.871094 330.078125 165.207031 C 330.890625 165.546875 331.6875 165.921875 332.460938 166.335938 C 333.238281 166.75 333.992188 167.203125 334.722656 167.691406 C 335.457031 168.179688 336.164062 168.703125 336.84375 169.261719 C 337.523438 169.820312 338.175781 170.410156 338.796875 171.035156 C 339.417969 171.65625 340.007812 172.308594 340.566406 172.988281 C 341.125 173.667969 341.648438 174.375 342.140625 175.105469 C 342.628906 175.839844 343.078125 176.59375 343.496094 177.367188 C 343.910156 178.144531 344.285156 178.9375 344.621094 179.753906 C 344.960938 180.566406 345.253906 181.394531 345.511719 182.234375 C 345.765625 183.078125 345.980469 183.929688 346.152344 184.792969 C 346.324219 185.65625 346.453125 186.527344 346.539062 187.402344 C 346.625 188.277344 346.667969 189.15625 346.667969 190.035156 C 346.667969 190.917969 346.625 191.792969 346.539062 192.671875 C 346.453125 193.546875 346.324219 194.417969 346.152344 195.28125 C 345.980469 196.144531 345.765625 196.996094 345.511719 197.835938 C 345.253906 198.679688 344.960938 199.507812 344.621094 200.320312 C 344.285156 201.132812 343.910156 201.929688 343.496094 202.707031 C 343.078125 203.480469 342.628906 204.234375 342.140625 204.96875 C 341.648438 205.699219 341.125 206.40625 340.566406 207.085938 C 340.007812 207.765625 339.417969 208.417969 338.796875 209.039062 C 338.175781 209.660156 337.523438 210.253906 336.84375 210.8125 C 336.164062 211.371094 335.457031 211.894531 334.722656 212.382812 C 333.992188 212.871094 333.238281 213.324219 332.460938 213.738281 C 331.6875 214.152344 330.890625 214.527344 330.078125 214.867188 C 329.265625 215.203125 328.4375 215.5 327.59375 215.753906 C 326.753906 216.007812 325.898438 216.222656 325.035156 216.394531 C 324.171875 216.566406 323.304688 216.695312 322.429688 216.78125 C 321.550781 216.867188 320.675781 216.910156 319.792969 216.910156 C 318.914062 216.910156 318.035156 216.867188 317.160156 216.777344 C 316.285156 216.691406 315.414062 216.5625 314.554688 216.390625 C 313.691406 216.21875 312.839844 216.003906 311.996094 215.746094 C 311.15625 215.492188 310.328125 215.195312 309.515625 214.855469 C 308.703125 214.519531 307.90625 214.144531 307.132812 213.726562 C 306.355469 213.3125 305.601562 212.859375 304.871094 212.371094 C 304.140625 211.882812 303.433594 211.359375 302.753906 210.800781 C 302.074219 210.242188 301.421875 209.652344 300.800781 209.03125 C 300.179688 208.410156 299.585938 207.757812 299.03125 207.078125 C 298.472656 206.398438 297.949219 205.691406 297.457031 204.960938 C 296.96875 204.226562 296.515625 203.476562 296.101562 202.699219 C 295.6875 201.921875 295.3125 201.128906 294.972656 200.316406 C 294.636719 199.503906 294.339844 198.675781 294.082031 197.835938 C 293.828125 196.992188 293.613281 196.140625 293.441406 195.277344 C 293.269531 194.414062 293.140625 193.546875 293.050781 192.667969 C 292.964844 191.792969 292.921875 190.917969 292.917969 190.035156 Z M 568.679688 452.742188 L 262 452.742188 L 262 242.203125 L 568.679688 242.203125 Z M 697.992188 462.445312 L 593.972656 402.375 L 593.972656 292.507812 L 697.992188 232.433594 Z M 697.992188 462.445312 " fill-opacity="1" fill-rule="nonzero"/></g><path fill="#ffffff" d="M 328.394531 347.550781 C 328.394531 348.976562 328.429688 350.402344 328.5 351.828125 C 328.574219 353.25 328.679688 354.671875 328.820312 356.089844 C 328.960938 357.511719 329.136719 358.925781 329.347656 360.335938 C 329.554688 361.746094 329.800781 363.148438 330.082031 364.546875 C 330.359375 365.945312 330.671875 367.335938 331.019531 368.71875 C 331.367188 370.101562 331.75 371.476562 332.164062 372.839844 C 332.578125 374.203125 333.027344 375.558594 333.507812 376.898438 C 333.992188 378.242188 334.503906 379.570312 335.050781 380.886719 C 335.597656 382.203125 336.175781 383.507812 336.789062 384.796875 C 337.398438 386.082031 338.039062 387.355469 338.714844 388.613281 C 339.386719 389.871094 340.089844 391.109375 340.824219 392.332031 C 341.558594 393.554688 342.320312 394.757812 343.113281 395.941406 C 343.910156 397.128906 344.730469 398.292969 345.582031 399.4375 C 346.429688 400.582031 347.308594 401.703125 348.214844 402.804688 C 349.121094 403.90625 350.050781 404.984375 351.011719 406.042969 C 351.96875 407.097656 352.953125 408.128906 353.960938 409.136719 C 354.972656 410.144531 356.003906 411.125 357.0625 412.082031 C 358.117188 413.039062 359.199219 413.96875 360.300781 414.871094 C 361.40625 415.777344 362.53125 416.652344 363.675781 417.5 C 364.820312 418.347656 365.988281 419.167969 367.175781 419.957031 C 368.359375 420.75 369.566406 421.511719 370.789062 422.242188 C 372.011719 422.976562 373.253906 423.675781 374.511719 424.347656 C 375.769531 425.019531 377.042969 425.65625 378.332031 426.265625 C 379.625 426.875 380.925781 427.449219 382.246094 427.996094 C 383.5625 428.539062 384.894531 429.050781 386.234375 429.53125 C 387.578125 430.007812 388.933594 430.453125 390.296875 430.867188 C 391.664062 431.28125 393.035156 431.660156 394.421875 432.003906 C 395.804688 432.347656 397.195312 432.660156 398.59375 432.9375 C 399.992188 433.214844 401.398438 433.457031 402.808594 433.664062 C 404.21875 433.871094 405.632812 434.042969 407.050781 434.183594 C 408.472656 434.320312 409.894531 434.421875 411.316406 434.492188 C 412.742188 434.558594 414.167969 434.59375 415.59375 434.59375 C 417.019531 434.589844 418.445312 434.554688 419.867188 434.484375 C 421.292969 434.410156 422.714844 434.304688 424.132812 434.164062 C 425.550781 434.023438 426.964844 433.847656 428.375 433.636719 C 429.785156 433.425781 431.191406 433.179688 432.589844 432.898438 C 433.984375 432.621094 435.375 432.304688 436.757812 431.957031 C 438.140625 431.609375 439.515625 431.226562 440.878906 430.8125 C 442.242188 430.398438 443.597656 429.949219 444.9375 429.464844 C 446.28125 428.984375 447.609375 428.46875 448.925781 427.921875 C 450.242188 427.375 451.546875 426.796875 452.832031 426.183594 C 454.121094 425.574219 455.394531 424.929688 456.652344 424.257812 C 457.90625 423.585938 459.148438 422.878906 460.367188 422.144531 C 461.589844 421.410156 462.792969 420.648438 463.980469 419.851562 C 465.164062 419.058594 466.328125 418.238281 467.472656 417.386719 C 468.617188 416.535156 469.738281 415.65625 470.839844 414.75 C 471.941406 413.847656 473.019531 412.914062 474.074219 411.953125 C 475.128906 410.996094 476.160156 410.011719 477.167969 409 C 478.175781 407.992188 479.15625 406.957031 480.113281 405.902344 C 481.070312 404.84375 482 403.761719 482.902344 402.660156 C 483.804688 401.554688 484.679688 400.429688 485.527344 399.285156 C 486.375 398.136719 487.195312 396.972656 487.984375 395.785156 C 488.777344 394.597656 489.539062 393.394531 490.269531 392.167969 C 491 390.945312 491.703125 389.703125 492.371094 388.445312 C 493.042969 387.1875 493.679688 385.914062 494.289062 384.625 C 494.898438 383.332031 495.472656 382.03125 496.015625 380.710938 C 496.5625 379.394531 497.070312 378.0625 497.550781 376.71875 C 498.027344 375.378906 498.472656 374.023438 498.886719 372.65625 C 499.296875 371.292969 499.675781 369.917969 500.019531 368.535156 C 500.367188 367.152344 500.675781 365.761719 500.953125 364.359375 C 501.226562 362.960938 501.46875 361.558594 501.675781 360.148438 C 501.882812 358.734375 502.058594 357.320312 502.195312 355.902344 C 502.332031 354.484375 502.433594 353.0625 502.503906 351.636719 C 502.570312 350.210938 502.605469 348.789062 502.601562 347.363281 C 502.601562 345.9375 502.5625 344.511719 502.492188 343.085938 C 502.417969 341.664062 502.3125 340.242188 502.171875 338.824219 C 502.027344 337.402344 501.851562 335.988281 501.640625 334.578125 C 501.429688 333.167969 501.183594 331.765625 500.902344 330.367188 C 500.621094 328.96875 500.308594 327.578125 499.960938 326.195312 C 499.609375 324.8125 499.230469 323.441406 498.8125 322.078125 C 498.398438 320.710938 497.949219 319.359375 497.464844 318.019531 C 496.984375 316.675781 496.46875 315.347656 495.921875 314.03125 C 495.371094 312.714844 494.792969 311.410156 494.179688 310.125 C 493.570312 308.835938 492.925781 307.5625 492.253906 306.308594 C 491.578125 305.050781 490.875 303.8125 490.140625 302.589844 C 489.402344 301.367188 488.640625 300.164062 487.84375 298.980469 C 487.050781 297.796875 486.230469 296.632812 485.378906 295.488281 C 484.527344 294.34375 483.648438 293.222656 482.742188 292.121094 C 481.835938 291.019531 480.902344 289.941406 479.941406 288.886719 C 478.984375 287.832031 478 286.800781 476.988281 285.796875 C 475.980469 284.789062 474.945312 283.808594 473.886719 282.851562 C 472.828125 281.894531 471.75 280.96875 470.644531 280.0625 C 469.539062 279.160156 468.414062 278.285156 467.269531 277.4375 C 466.121094 276.589844 464.957031 275.773438 463.769531 274.984375 C 462.582031 274.191406 461.375 273.433594 460.152344 272.699219 C 458.929688 271.96875 457.6875 271.269531 456.425781 270.597656 C 455.167969 269.929688 453.894531 269.289062 452.605469 268.683594 C 451.316406 268.074219 450.011719 267.5 448.691406 266.957031 C 447.375 266.414062 446.042969 265.902344 444.699219 265.425781 C 443.355469 264.945312 442.003906 264.503906 440.636719 264.089844 C 439.273438 263.679688 437.898438 263.300781 436.515625 262.957031 C 435.128906 262.613281 433.738281 262.304688 432.339844 262.027344 C 430.941406 261.753906 429.535156 261.511719 428.125 261.304688 C 426.714844 261.097656 425.300781 260.925781 423.878906 260.789062 C 422.460938 260.652344 421.039062 260.546875 419.613281 260.480469 C 418.191406 260.414062 416.765625 260.382812 415.339844 260.382812 C 413.914062 260.386719 412.492188 260.425781 411.070312 260.5 C 409.648438 260.574219 408.230469 260.683594 406.8125 260.828125 C 405.394531 260.96875 403.980469 261.148438 402.574219 261.359375 C 401.164062 261.574219 399.765625 261.820312 398.367188 262.101562 C 396.972656 262.382812 395.582031 262.699219 394.203125 263.046875 C 392.820312 263.398438 391.449219 263.78125 390.089844 264.195312 C 388.726562 264.613281 387.375 265.0625 386.035156 265.546875 C 384.695312 266.027344 383.371094 266.542969 382.054688 267.089844 C 380.742188 267.640625 379.441406 268.21875 378.152344 268.828125 C 376.867188 269.441406 375.597656 270.082031 374.34375 270.757812 C 373.089844 271.429688 371.851562 272.136719 370.628906 272.871094 C 369.410156 273.605469 368.207031 274.367188 367.027344 275.160156 C 365.84375 275.953125 364.679688 276.777344 363.539062 277.625 C 362.394531 278.476562 361.273438 279.355469 360.175781 280.257812 C 359.074219 281.164062 358 282.09375 356.945312 283.054688 C 355.890625 284.011719 354.859375 284.992188 353.855469 286.003906 C 352.847656 287.011719 351.867188 288.042969 350.914062 289.097656 C 349.957031 290.15625 349.03125 291.234375 348.128906 292.335938 C 347.226562 293.4375 346.351562 294.5625 345.503906 295.707031 C 344.65625 296.851562 343.835938 298.015625 343.046875 299.199219 C 342.257812 300.386719 341.496094 301.589844 340.765625 302.808594 C 340.035156 304.03125 339.332031 305.273438 338.664062 306.527344 C 337.992188 307.785156 337.351562 309.054688 336.746094 310.34375 C 336.136719 311.632812 335.558594 312.933594 335.015625 314.25 C 334.472656 315.566406 333.960938 316.894531 333.480469 318.234375 C 333 319.578125 332.554688 320.929688 332.140625 322.292969 C 331.730469 323.652344 331.347656 325.027344 331.003906 326.40625 C 330.65625 327.789062 330.347656 329.179688 330.066406 330.574219 C 329.789062 331.972656 329.546875 333.375 329.339844 334.785156 C 329.128906 336.191406 328.953125 337.605469 328.816406 339.023438 C 328.675781 340.441406 328.570312 341.859375 328.5 343.28125 C 328.429688 344.703125 328.394531 346.128906 328.394531 347.550781 Z M 477.308594 347.550781 C 477.304688 349.574219 477.207031 351.59375 477.003906 353.605469 C 476.804688 355.617188 476.507812 357.617188 476.109375 359.601562 C 475.714844 361.582031 475.222656 363.542969 474.632812 365.476562 C 474.042969 367.414062 473.363281 369.316406 472.585938 371.183594 C 471.8125 373.050781 470.945312 374.878906 469.992188 376.660156 C 469.035156 378.445312 467.996094 380.175781 466.871094 381.859375 C 465.746094 383.539062 464.542969 385.160156 463.257812 386.722656 C 461.972656 388.289062 460.617188 389.785156 459.1875 391.214844 C 457.753906 392.644531 456.257812 394 454.691406 395.28125 C 453.128906 396.566406 451.507812 397.769531 449.824219 398.890625 C 448.140625 400.015625 446.410156 401.054688 444.625 402.007812 C 442.839844 402.960938 441.011719 403.824219 439.144531 404.597656 C 437.277344 405.371094 435.375 406.050781 433.4375 406.636719 C 431.5 407.226562 429.542969 407.714844 427.558594 408.109375 C 425.574219 408.503906 423.574219 408.800781 421.5625 409 C 419.550781 409.199219 417.53125 409.296875 415.507812 409.300781 C 413.484375 409.300781 411.46875 409.199219 409.453125 409.003906 C 407.441406 408.804688 405.441406 408.507812 403.457031 408.113281 C 401.472656 407.722656 399.515625 407.230469 397.578125 406.644531 C 395.640625 406.058594 393.738281 405.378906 391.871094 404.605469 C 390 403.832031 388.175781 402.96875 386.390625 402.015625 C 384.605469 401.0625 382.871094 400.027344 381.1875 398.902344 C 379.507812 397.78125 377.882812 396.578125 376.320312 395.296875 C 374.753906 394.011719 373.257812 392.65625 371.824219 391.226562 C 370.394531 389.800781 369.035156 388.304688 367.75 386.742188 C 366.464844 385.179688 365.261719 383.554688 364.136719 381.875 C 363.011719 380.195312 361.96875 378.460938 361.015625 376.679688 C 360.058594 374.894531 359.195312 373.070312 358.417969 371.203125 C 357.640625 369.335938 356.957031 367.433594 356.367188 365.5 C 355.78125 363.5625 355.285156 361.605469 354.890625 359.621094 C 354.492188 357.636719 354.195312 355.640625 353.992188 353.625 C 353.792969 351.613281 353.691406 349.59375 353.6875 347.574219 C 353.683594 345.550781 353.78125 343.53125 353.976562 341.519531 C 354.171875 339.503906 354.464844 337.503906 354.855469 335.519531 C 355.25 333.535156 355.734375 331.574219 356.320312 329.640625 C 356.90625 327.703125 357.582031 325.800781 358.351562 323.929688 C 359.125 322.058594 359.984375 320.230469 360.933594 318.445312 C 361.886719 316.660156 362.921875 314.925781 364.042969 313.242188 C 365.164062 311.558594 366.363281 309.933594 367.644531 308.367188 C 368.925781 306.800781 370.277344 305.300781 371.707031 303.867188 C 373.132812 302.433594 374.628906 301.074219 376.1875 299.789062 C 377.75 298.5 379.371094 297.292969 381.050781 296.167969 C 382.730469 295.039062 384.460938 293.996094 386.242188 293.039062 C 388.023438 292.082031 389.847656 291.214844 391.714844 290.4375 C 393.582031 289.65625 395.484375 288.972656 397.417969 288.382812 C 399.351562 287.789062 401.308594 287.292969 403.292969 286.894531 C 405.277344 286.496094 407.273438 286.195312 409.285156 285.988281 C 411.300781 285.785156 413.316406 285.683594 415.339844 285.675781 C 417.363281 285.679688 419.386719 285.78125 421.398438 285.980469 C 423.414062 286.183594 425.414062 286.480469 427.402344 286.878906 C 429.386719 287.273438 431.347656 287.765625 433.285156 288.355469 C 435.222656 288.945312 437.128906 289.628906 439 290.40625 C 440.867188 291.183594 442.695312 292.046875 444.480469 293.003906 C 446.265625 293.960938 448 295 449.683594 296.128906 C 451.367188 297.253906 452.992188 298.460938 454.554688 299.746094 C 456.121094 301.03125 457.621094 302.390625 459.050781 303.824219 C 460.480469 305.253906 461.839844 306.753906 463.125 308.320312 C 464.40625 309.886719 465.613281 311.511719 466.734375 313.195312 C 467.859375 314.878906 468.898438 316.617188 469.855469 318.402344 C 470.808594 320.1875 471.671875 322.015625 472.445312 323.886719 C 473.222656 325.757812 473.902344 327.664062 474.488281 329.601562 C 475.078125 331.539062 475.570312 333.503906 475.964844 335.488281 C 476.359375 337.472656 476.65625 339.476562 476.851562 341.492188 C 477.050781 343.507812 477.152344 345.527344 477.152344 347.550781 Z M 477.308594 347.550781 " fill-opacity="1" fill-rule="nonzero"/><path fill="#ffffff" d="M 384.355469 305.847656 C 383.394531 306.402344 382.523438 307.074219 381.738281 307.855469 C 380.953125 308.640625 380.285156 309.511719 379.730469 310.472656 C 379.175781 311.433594 378.753906 312.449219 378.464844 313.519531 C 378.175781 314.589844 378.03125 315.679688 378.03125 316.789062 L 378.03125 378.125 C 378.03125 379.238281 378.171875 380.328125 378.460938 381.402344 C 378.746094 382.476562 379.167969 383.496094 379.722656 384.457031 C 380.277344 385.421875 380.945312 386.296875 381.734375 387.082031 C 382.519531 387.871094 383.394531 388.539062 384.355469 389.097656 C 385.316406 389.652344 386.332031 390.070312 387.40625 390.359375 C 388.476562 390.648438 389.570312 390.789062 390.679688 390.789062 C 391.789062 390.789062 392.878906 390.648438 393.953125 390.359375 C 395.023438 390.070312 396.039062 389.652344 397.003906 389.097656 L 450.148438 358.429688 C 451.113281 357.871094 451.984375 357.203125 452.769531 356.417969 C 453.554688 355.632812 454.226562 354.761719 454.78125 353.796875 C 455.335938 352.835938 455.757812 351.820312 456.046875 350.746094 C 456.335938 349.675781 456.476562 348.582031 456.476562 347.472656 C 456.476562 346.363281 456.335938 345.269531 456.046875 344.199219 C 455.757812 343.125 455.335938 342.109375 454.78125 341.148438 C 454.226562 340.183594 453.554688 339.3125 452.769531 338.527344 C 451.984375 337.742188 451.113281 337.070312 450.148438 336.515625 L 397.003906 305.847656 C 396.039062 305.292969 395.023438 304.871094 393.953125 304.585938 C 392.878906 304.296875 391.789062 304.15625 390.679688 304.15625 C 389.570312 304.15625 388.476562 304.296875 387.40625 304.585938 C 386.332031 304.871094 385.316406 305.292969 384.355469 305.847656 Z M 403.324219 338.699219 L 418.53125 347.550781 L 403.324219 356.246094 Z M 403.324219 338.699219 " fill-opacity="1" fill-rule="nonzero"/></svg>