<svg xmlns="http://www.w3.org/2000/svg" xmlns:xlink="http://www.w3.org/1999/xlink" width="500" zoomAndPan="magnify" viewBox="0 0 375 374.999991" height="500" preserveAspectRatio="xMidYMid meet" version="1.0"><defs><clipPath id="d092ca18e5"><path d="M 64.136719 80 L 310.886719 80 L 310.886719 296.816406 L 64.136719 296.816406 Z M 64.136719 80 " clip-rule="nonzero"/></clipPath></defs><rect x="-37.5" width="450" fill="#ffffff" y="-37.499999" height="449.999989" fill-opacity="1"/><rect x="-37.5" width="450" fill="#00854a" y="-37.499999" height="449.999989" fill-opacity="1"/><g clip-path="url(#d092ca18e5)"><path fill="#ffffff" d="M 307.40625 146.316406 C 306.917969 146.035156 306.402344 145.820312 305.859375 145.675781 C 305.320312 145.53125 304.765625 145.457031 304.203125 145.457031 C 303.644531 145.457031 303.089844 145.53125 302.546875 145.675781 C 302.003906 145.820312 301.492188 146.035156 301.003906 146.316406 L 245.179688 178.539062 L 245.179688 161.46875 C 245.179688 161.046875 245.136719 160.628906 245.054688 160.21875 C 244.976562 159.804688 244.851562 159.40625 244.691406 159.019531 C 244.53125 158.628906 244.335938 158.261719 244.101562 157.910156 C 243.867188 157.5625 243.601562 157.238281 243.304688 156.941406 C 243.007812 156.644531 242.683594 156.378906 242.335938 156.144531 C 241.984375 155.910156 241.617188 155.714844 241.230469 155.554688 C 240.839844 155.394531 240.441406 155.273438 240.027344 155.191406 C 239.617188 155.109375 239.199219 155.066406 238.78125 155.066406 L 192.777344 155.066406 C 193.390625 154.457031 193.980469 153.828125 194.554688 153.183594 C 195.128906 152.539062 195.683594 151.878906 196.21875 151.203125 C 196.753906 150.523438 197.269531 149.832031 197.761719 149.125 C 198.253906 148.414062 198.726562 147.691406 199.179688 146.957031 C 199.628906 146.222656 200.058594 145.472656 200.464844 144.710938 C 200.871094 143.949219 201.253906 143.175781 201.617188 142.394531 C 201.976562 141.609375 202.3125 140.8125 202.628906 140.011719 C 202.941406 139.207031 203.230469 138.394531 203.496094 137.570312 C 203.761719 136.75 204.003906 135.921875 204.21875 135.085938 C 204.4375 134.25 204.628906 133.410156 204.796875 132.5625 C 204.960938 131.714844 205.105469 130.867188 205.21875 130.011719 C 205.335938 129.15625 205.425781 128.296875 205.492188 127.4375 C 205.558594 126.574219 205.597656 125.714844 205.613281 124.851562 C 205.628906 123.988281 205.617188 123.125 205.582031 122.261719 C 205.542969 121.398438 205.480469 120.539062 205.394531 119.679688 C 205.308594 118.820312 205.195312 117.96875 205.054688 117.113281 C 204.917969 116.261719 204.753906 115.414062 204.566406 114.574219 C 204.378906 113.730469 204.164062 112.894531 203.925781 112.066406 C 203.6875 111.234375 203.425781 110.414062 203.140625 109.597656 C 202.855469 108.785156 202.542969 107.980469 202.210938 107.183594 C 201.875 106.386719 201.519531 105.601562 201.136719 104.828125 C 200.757812 104.054688 200.351562 103.289062 199.925781 102.539062 C 199.5 101.789062 199.054688 101.050781 198.585938 100.328125 C 198.113281 99.601562 197.625 98.894531 197.113281 98.199219 C 196.601562 97.503906 196.070312 96.824219 195.519531 96.160156 C 194.964844 95.496094 194.394531 94.847656 193.804688 94.21875 C 193.214844 93.589844 192.605469 92.976562 191.980469 92.382812 C 191.355469 91.789062 190.710938 91.214844 190.050781 90.660156 C 189.390625 90.101562 188.714844 89.566406 188.023438 89.050781 C 187.328125 88.535156 186.625 88.039062 185.902344 87.566406 C 185.179688 87.09375 184.445312 86.640625 183.699219 86.210938 C 182.949219 85.777344 182.1875 85.371094 181.417969 84.984375 C 180.644531 84.601562 179.859375 84.238281 179.066406 83.898438 C 178.273438 83.558594 177.46875 83.246094 176.65625 82.953125 C 175.84375 82.660156 175.023438 82.394531 174.195312 82.152344 C 173.367188 81.910156 172.535156 81.691406 171.691406 81.496094 C 170.851562 81.304688 170.003906 81.136719 169.152344 80.992188 C 168.304688 80.847656 167.449219 80.730469 166.589844 80.636719 C 165.730469 80.546875 164.871094 80.476562 164.011719 80.4375 C 163.148438 80.394531 162.285156 80.378906 161.421875 80.386719 C 160.558594 80.394531 159.695312 80.429688 158.835938 80.492188 C 157.972656 80.550781 157.117188 80.636719 156.261719 80.75 C 155.402344 80.859375 154.550781 80.996094 153.703125 81.15625 C 152.855469 81.320312 152.015625 81.503906 151.175781 81.71875 C 150.339844 81.929688 149.511719 82.164062 148.6875 82.425781 C 147.863281 82.6875 147.050781 82.972656 146.246094 83.28125 C 145.4375 83.589844 144.640625 83.921875 143.855469 84.277344 C 143.070312 84.632812 142.292969 85.011719 141.53125 85.414062 C 140.765625 85.816406 140.015625 86.238281 139.277344 86.6875 C 138.539062 87.132812 137.8125 87.601562 137.101562 88.089844 C 136.390625 88.578125 135.695312 89.089844 135.015625 89.621094 C 134.332031 90.148438 133.667969 90.699219 133.019531 91.269531 C 132.371094 91.839844 131.742188 92.429688 131.128906 93.035156 C 130.515625 93.644531 129.917969 94.269531 129.34375 94.910156 C 128.765625 95.554688 128.210938 96.210938 127.671875 96.886719 C 127.132812 97.5625 126.617188 98.253906 126.121094 98.960938 C 125.625 99.664062 125.148438 100.386719 124.695312 101.121094 C 124.242188 101.855469 123.808594 102.601562 123.398438 103.359375 C 122.992188 104.121094 122.605469 104.890625 122.238281 105.675781 C 121.875 106.457031 121.535156 107.25 121.21875 108.050781 C 120.902344 108.855469 120.609375 109.667969 120.339844 110.488281 C 120.070312 111.308594 119.824219 112.136719 119.605469 112.96875 C 119.386719 113.804688 119.191406 114.644531 119.019531 115.492188 C 118.851562 116.335938 118.707031 117.1875 118.585938 118.042969 C 117.320312 117.378906 116.007812 116.824219 114.648438 116.375 C 113.292969 115.925781 111.910156 115.589844 110.496094 115.367188 C 109.085938 115.144531 107.664062 115.039062 106.234375 115.046875 C 104.804688 115.054688 103.386719 115.175781 101.976562 115.414062 C 100.566406 115.652344 99.1875 116.003906 97.835938 116.46875 C 96.484375 116.929688 95.175781 117.5 93.917969 118.175781 C 92.65625 118.851562 91.460938 119.625 90.328125 120.496094 C 89.195312 121.367188 88.136719 122.324219 87.160156 123.367188 C 86.183594 124.410156 85.296875 125.523438 84.5 126.710938 C 83.703125 127.898438 83.007812 129.140625 82.414062 130.441406 C 81.816406 131.738281 81.332031 133.078125 80.957031 134.457031 C 80.578125 135.835938 80.316406 137.238281 80.167969 138.660156 C 80.019531 140.082031 79.988281 141.503906 80.070312 142.933594 C 80.15625 144.359375 80.351562 145.769531 80.664062 147.164062 C 80.976562 148.558594 81.402344 149.917969 81.9375 151.246094 C 82.46875 152.570312 83.109375 153.84375 83.847656 155.066406 L 70.777344 155.066406 C 70.355469 155.066406 69.941406 155.109375 69.527344 155.191406 C 69.117188 155.273438 68.714844 155.394531 68.328125 155.554688 C 67.941406 155.714844 67.570312 155.910156 67.222656 156.144531 C 66.871094 156.378906 66.546875 156.644531 66.25 156.941406 C 65.953125 157.238281 65.6875 157.5625 65.457031 157.910156 C 65.222656 158.261719 65.023438 158.628906 64.863281 159.019531 C 64.703125 159.40625 64.582031 159.804688 64.5 160.21875 C 64.417969 160.628906 64.375 161.046875 64.375 161.46875 L 64.375 280.8125 C 64.375 281.234375 64.417969 281.648438 64.5 282.0625 C 64.582031 282.472656 64.703125 282.875 64.863281 283.261719 C 65.023438 283.648438 65.222656 284.019531 65.457031 284.367188 C 65.6875 284.71875 65.953125 285.042969 66.25 285.339844 C 66.546875 285.636719 66.871094 285.902344 67.222656 286.132812 C 67.570312 286.367188 67.941406 286.566406 68.328125 286.726562 C 68.714844 286.886719 69.117188 287.007812 69.527344 287.089844 C 69.941406 287.171875 70.355469 287.210938 70.777344 287.210938 L 238.78125 287.210938 C 239.199219 287.210938 239.617188 287.171875 240.027344 287.089844 C 240.441406 287.007812 240.839844 286.886719 241.230469 286.726562 C 241.617188 286.566406 241.984375 286.367188 242.335938 286.132812 C 242.683594 285.902344 243.007812 285.636719 243.304688 285.339844 C 243.601562 285.042969 243.867188 284.71875 244.101562 284.367188 C 244.335938 284.019531 244.53125 283.648438 244.691406 283.261719 C 244.851562 282.875 244.976562 282.472656 245.054688 282.0625 C 245.136719 281.648438 245.179688 281.234375 245.179688 280.8125 L 245.179688 263.722656 L 301.019531 295.964844 C 301.507812 296.246094 302.019531 296.457031 302.5625 296.605469 C 303.105469 296.75 303.660156 296.824219 304.21875 296.824219 C 304.78125 296.824219 305.335938 296.75 305.875 296.605469 C 306.417969 296.457031 306.933594 296.246094 307.421875 295.964844 C 307.90625 295.683594 308.351562 295.34375 308.746094 294.945312 C 309.144531 294.546875 309.484375 294.105469 309.765625 293.617188 C 310.046875 293.132812 310.257812 292.617188 310.40625 292.070312 C 310.550781 291.527344 310.621094 290.976562 310.621094 290.414062 L 310.621094 151.851562 C 310.621094 151.289062 310.546875 150.738281 310.398438 150.195312 C 310.25 149.652344 310.035156 149.136719 309.753906 148.652344 C 309.472656 148.164062 309.132812 147.726562 308.734375 147.328125 C 308.335938 146.933594 307.890625 146.59375 307.40625 146.316406 Z M 161.976562 93.179688 C 162.992188 93.179688 164 93.234375 165.007812 93.335938 C 166.015625 93.4375 167.015625 93.585938 168.011719 93.789062 C 169.003906 93.988281 169.984375 94.234375 170.953125 94.53125 C 171.921875 94.828125 172.875 95.171875 173.808594 95.5625 C 174.742188 95.953125 175.65625 96.386719 176.546875 96.867188 C 177.441406 97.34375 178.308594 97.867188 179.148438 98.433594 C 179.988281 98.996094 180.800781 99.601562 181.582031 100.246094 C 182.363281 100.890625 183.113281 101.570312 183.828125 102.289062 C 184.542969 103.007812 185.21875 103.757812 185.859375 104.542969 C 186.5 105.324219 187.101562 106.140625 187.664062 106.984375 C 188.222656 107.828125 188.742188 108.695312 189.21875 109.589844 C 189.695312 110.484375 190.125 111.398438 190.511719 112.335938 C 190.894531 113.273438 191.234375 114.226562 191.527344 115.195312 C 191.820312 116.164062 192.0625 117.148438 192.257812 118.140625 C 192.453125 119.132812 192.601562 120.136719 192.699219 121.144531 C 192.796875 122.152344 192.84375 123.164062 192.84375 124.175781 C 192.839844 125.1875 192.789062 126.199219 192.6875 127.207031 C 192.585938 128.214844 192.4375 129.214844 192.238281 130.207031 C 192.039062 131.203125 191.792969 132.183594 191.496094 133.152344 C 191.199219 134.121094 190.859375 135.070312 190.46875 136.007812 C 190.082031 136.941406 189.648438 137.855469 189.167969 138.75 C 188.6875 139.640625 188.167969 140.507812 187.605469 141.351562 C 187.039062 142.191406 186.4375 143.003906 185.792969 143.785156 C 185.148438 144.566406 184.46875 145.316406 183.75 146.03125 C 183.035156 146.746094 182.285156 147.425781 181.5 148.066406 C 180.714844 148.707031 179.902344 149.308594 179.058594 149.871094 C 178.21875 150.433594 177.347656 150.953125 176.453125 151.429688 C 175.5625 151.90625 174.644531 152.335938 173.710938 152.722656 C 172.773438 153.109375 171.820312 153.449219 170.851562 153.742188 C 169.882812 154.035156 168.898438 154.28125 167.90625 154.476562 C 166.914062 154.675781 165.910156 154.820312 164.902344 154.921875 C 163.894531 155.019531 162.882812 155.066406 161.871094 155.066406 C 160.859375 155.066406 159.847656 155.015625 158.839844 154.914062 C 157.832031 154.816406 156.832031 154.664062 155.839844 154.46875 C 154.84375 154.269531 153.863281 154.023438 152.894531 153.726562 C 151.925781 153.433594 150.972656 153.09375 150.039062 152.703125 C 149.101562 152.316406 148.1875 151.882812 147.296875 151.402344 C 146.402344 150.925781 145.535156 150.40625 144.691406 149.84375 C 143.851562 149.277344 143.039062 148.675781 142.253906 148.03125 C 141.472656 147.390625 140.722656 146.710938 140.007812 145.992188 C 139.292969 145.277344 138.613281 144.527344 137.96875 143.746094 C 137.328125 142.960938 136.726562 142.148438 136.164062 141.304688 C 135.601562 140.464844 135.082031 139.59375 134.605469 138.703125 C 134.125 137.808594 133.695312 136.894531 133.308594 135.957031 C 132.917969 135.023438 132.578125 134.070312 132.285156 133.101562 C 131.992188 132.132812 131.746094 131.148438 131.546875 130.15625 C 131.351562 129.164062 131.203125 128.160156 131.101562 127.152344 C 131.003906 126.144531 130.953125 125.136719 130.953125 124.121094 C 130.957031 123.109375 131.007812 122.09375 131.109375 121.085938 C 131.207031 120.074219 131.359375 119.074219 131.558594 118.078125 C 131.757812 117.085938 132.003906 116.101562 132.300781 115.128906 C 132.597656 114.160156 132.941406 113.207031 133.328125 112.269531 C 133.71875 111.332031 134.152344 110.417969 134.632812 109.523438 C 135.113281 108.628906 135.636719 107.761719 136.199219 106.917969 C 136.765625 106.074219 137.371094 105.261719 138.015625 104.476562 C 138.660156 103.695312 139.339844 102.945312 140.058594 102.226562 C 140.777344 101.511719 141.53125 100.832031 142.316406 100.1875 C 143.101562 99.546875 143.914062 98.941406 144.757812 98.378906 C 145.605469 97.816406 146.472656 97.296875 147.371094 96.820312 C 148.265625 96.34375 149.179688 95.910156 150.121094 95.523438 C 151.058594 95.136719 152.011719 94.796875 152.984375 94.503906 C 153.953125 94.207031 154.9375 93.964844 155.933594 93.765625 C 156.929688 93.570312 157.929688 93.421875 158.941406 93.324219 C 159.953125 93.226562 160.964844 93.175781 161.976562 93.179688 Z M 131 155.066406 L 129.019531 155.066406 C 129.273438 154.636719 129.53125 154.203125 129.769531 153.769531 Z M 92.824219 141.464844 C 92.824219 140.574219 92.914062 139.6875 93.085938 138.8125 C 93.261719 137.9375 93.519531 137.085938 93.859375 136.261719 C 94.203125 135.4375 94.621094 134.652344 95.117188 133.910156 C 95.613281 133.167969 96.175781 132.480469 96.808594 131.851562 C 97.441406 131.21875 98.128906 130.65625 98.871094 130.160156 C 99.613281 129.664062 100.394531 129.242188 101.222656 128.902344 C 102.046875 128.558594 102.894531 128.300781 103.773438 128.128906 C 104.648438 127.953125 105.53125 127.867188 106.425781 127.867188 C 107.320312 127.867188 108.203125 127.953125 109.078125 128.128906 C 109.953125 128.300781 110.804688 128.558594 111.628906 128.902344 C 112.457031 129.242188 113.238281 129.664062 113.980469 130.160156 C 114.722656 130.65625 115.410156 131.21875 116.042969 131.851562 C 116.671875 132.480469 117.238281 133.167969 117.734375 133.910156 C 118.230469 134.652344 118.648438 135.4375 118.992188 136.261719 C 119.332031 137.085938 119.589844 137.9375 119.765625 138.8125 C 119.9375 139.6875 120.027344 140.574219 120.027344 141.464844 C 120.027344 142.359375 119.9375 143.242188 119.765625 144.121094 C 119.589844 144.996094 119.332031 145.847656 118.992188 146.671875 C 118.648438 147.496094 118.230469 148.28125 117.734375 149.023438 C 117.238281 149.765625 116.671875 150.453125 116.042969 151.082031 C 115.410156 151.714844 114.722656 152.277344 113.980469 152.773438 C 113.238281 153.269531 112.457031 153.691406 111.628906 154.03125 C 110.804688 154.375 109.953125 154.632812 109.078125 154.804688 C 108.203125 154.980469 107.320312 155.066406 106.425781 155.066406 C 105.53125 155.066406 104.648438 154.976562 103.773438 154.804688 C 102.898438 154.628906 102.046875 154.371094 101.222656 154.027344 C 100.398438 153.683594 99.617188 153.265625 98.875 152.769531 C 98.132812 152.273438 97.445312 151.710938 96.8125 151.078125 C 96.183594 150.449219 95.617188 149.761719 95.121094 149.019531 C 94.625 148.277344 94.207031 147.492188 93.863281 146.667969 C 93.523438 145.84375 93.265625 144.996094 93.089844 144.117188 C 92.914062 143.242188 92.828125 142.359375 92.824219 141.464844 Z M 232.378906 274.414062 L 77.175781 274.414062 L 77.175781 167.867188 L 232.378906 167.867188 Z M 297.820312 279.324219 L 245.179688 248.925781 L 245.179688 193.324219 L 297.820312 162.921875 Z M 297.820312 279.324219 " fill-opacity="1" fill-rule="nonzero"/></g><path fill="#ffffff" d="M 110.777344 221.179688 C 110.777344 222.625 110.851562 224.0625 110.992188 225.5 C 111.136719 226.9375 111.347656 228.363281 111.632812 229.78125 C 111.914062 231.195312 112.265625 232.597656 112.6875 233.976562 C 113.105469 235.359375 113.59375 236.714844 114.148438 238.050781 C 114.699219 239.382812 115.316406 240.6875 116 241.960938 C 116.683594 243.234375 117.425781 244.46875 118.226562 245.667969 C 119.03125 246.871094 119.890625 248.027344 120.808594 249.140625 C 121.726562 250.257812 122.695312 251.324219 123.71875 252.347656 C 124.738281 253.367188 125.808594 254.332031 126.925781 255.25 C 128.042969 256.164062 129.203125 257.023438 130.402344 257.824219 C 131.605469 258.625 132.84375 259.363281 134.117188 260.042969 C 135.390625 260.722656 136.695312 261.339844 138.03125 261.890625 C 139.363281 262.441406 140.722656 262.925781 142.105469 263.34375 C 143.488281 263.761719 144.886719 264.109375 146.304688 264.390625 C 147.71875 264.671875 149.148438 264.878906 150.585938 265.019531 C 152.023438 265.160156 153.460938 265.230469 154.90625 265.226562 C 156.351562 265.226562 157.789062 265.15625 159.226562 265.011719 C 160.664062 264.867188 162.089844 264.65625 163.507812 264.371094 C 164.921875 264.089844 166.320312 263.734375 167.703125 263.316406 C 169.085938 262.894531 170.441406 262.40625 171.773438 261.851562 C 173.109375 261.300781 174.410156 260.679688 175.683594 260 C 176.957031 259.316406 178.195312 258.574219 179.394531 257.769531 C 180.59375 256.964844 181.75 256.105469 182.867188 255.1875 C 183.980469 254.269531 185.046875 253.300781 186.066406 252.277344 C 187.085938 251.253906 188.054688 250.1875 188.96875 249.066406 C 189.882812 247.949219 190.742188 246.792969 191.542969 245.589844 C 192.34375 244.386719 193.082031 243.148438 193.761719 241.875 C 194.441406 240.601562 195.054688 239.296875 195.605469 237.960938 C 196.15625 236.625 196.640625 235.269531 197.058594 233.886719 C 197.476562 232.503906 197.824219 231.101562 198.105469 229.6875 C 198.382812 228.269531 198.59375 226.84375 198.734375 225.40625 C 198.871094 223.96875 198.941406 222.527344 198.9375 221.082031 C 198.9375 219.640625 198.863281 218.199219 198.71875 216.761719 C 198.578125 215.324219 198.363281 213.898438 198.078125 212.484375 C 197.796875 211.066406 197.441406 209.667969 197.019531 208.289062 C 196.601562 206.90625 196.113281 205.550781 195.558594 204.214844 C 195.003906 202.882812 194.382812 201.578125 193.703125 200.308594 C 193.019531 199.035156 192.273438 197.800781 191.472656 196.601562 C 190.667969 195.398438 189.804688 194.242188 188.886719 193.128906 C 187.96875 192.015625 187 190.945312 185.976562 189.925781 C 184.953125 188.90625 183.882812 187.941406 182.765625 187.027344 C 181.648438 186.113281 180.488281 185.253906 179.285156 184.453125 C 178.085938 183.65625 176.847656 182.914062 175.570312 182.238281 C 174.296875 181.558594 172.992188 180.945312 171.65625 180.394531 C 170.320312 179.84375 168.964844 179.359375 167.582031 178.941406 C 166.199219 178.527344 164.796875 178.179688 163.382812 177.898438 C 161.964844 177.621094 160.539062 177.410156 159.101562 177.273438 C 157.664062 177.132812 156.222656 177.066406 154.777344 177.066406 C 153.335938 177.070312 151.898438 177.144531 150.460938 177.292969 C 149.027344 177.4375 147.601562 177.652344 146.1875 177.9375 C 144.777344 178.222656 143.378906 178.574219 142 178.996094 C 140.621094 179.417969 139.265625 179.90625 137.933594 180.460938 C 136.601562 181.015625 135.300781 181.632812 134.03125 182.316406 C 132.761719 183 131.527344 183.742188 130.328125 184.546875 C 129.128906 185.347656 127.972656 186.207031 126.859375 187.125 C 125.746094 188.042969 124.679688 189.011719 123.664062 190.03125 C 122.644531 191.054688 121.679688 192.121094 120.765625 193.238281 C 119.851562 194.351562 118.992188 195.511719 118.195312 196.710938 C 117.394531 197.910156 116.652344 199.148438 115.972656 200.417969 C 115.296875 201.691406 114.679688 202.996094 114.128906 204.328125 C 113.578125 205.660156 113.09375 207.015625 112.675781 208.394531 C 112.257812 209.777344 111.90625 211.175781 111.625 212.589844 C 111.34375 214.003906 111.132812 215.429688 110.992188 216.863281 C 110.847656 218.296875 110.777344 219.738281 110.777344 221.179688 Z M 186.140625 221.179688 C 186.136719 222.203125 186.085938 223.226562 185.984375 224.242188 C 185.882812 225.261719 185.734375 226.273438 185.53125 227.277344 C 185.332031 228.28125 185.082031 229.273438 184.785156 230.253906 C 184.488281 231.230469 184.140625 232.195312 183.75 233.140625 C 183.355469 234.085938 182.917969 235.007812 182.4375 235.910156 C 181.953125 236.8125 181.425781 237.691406 180.855469 238.542969 C 180.289062 239.390625 179.679688 240.214844 179.027344 241.003906 C 178.378906 241.796875 177.691406 242.550781 176.96875 243.277344 C 176.242188 244 175.484375 244.6875 174.695312 245.335938 C 173.902344 245.984375 173.082031 246.59375 172.230469 247.160156 C 171.378906 247.730469 170.5 248.253906 169.597656 248.738281 C 168.695312 249.21875 167.769531 249.65625 166.824219 250.046875 C 165.878906 250.441406 164.917969 250.785156 163.9375 251.082031 C 162.957031 251.378906 161.964844 251.628906 160.960938 251.828125 C 159.957031 252.027344 158.945312 252.175781 157.925781 252.277344 C 156.910156 252.378906 155.886719 252.429688 154.863281 252.429688 C 153.839844 252.429688 152.820312 252.378906 151.800781 252.277344 C 150.78125 252.179688 149.769531 252.027344 148.765625 251.828125 C 147.761719 251.628906 146.769531 251.382812 145.789062 251.085938 C 144.808594 250.789062 143.847656 250.445312 142.902344 250.050781 C 141.957031 249.660156 141.03125 249.226562 140.128906 248.742188 C 139.226562 248.261719 138.347656 247.734375 137.496094 247.167969 C 136.644531 246.597656 135.824219 245.992188 135.03125 245.339844 C 134.238281 244.691406 133.480469 244.007812 132.757812 243.285156 C 132.03125 242.558594 131.34375 241.804688 130.695312 241.011719 C 130.042969 240.222656 129.433594 239.402344 128.867188 238.550781 C 128.296875 237.699219 127.769531 236.824219 127.285156 235.921875 C 126.800781 235.019531 126.363281 234.09375 125.972656 233.148438 C 125.578125 232.203125 125.234375 231.242188 124.933594 230.261719 C 124.636719 229.28125 124.386719 228.292969 124.1875 227.289062 C 123.984375 226.285156 123.835938 225.273438 123.730469 224.253906 C 123.628906 223.234375 123.578125 222.214844 123.578125 221.191406 C 123.578125 220.167969 123.625 219.144531 123.722656 218.125 C 123.824219 217.109375 123.972656 216.097656 124.167969 215.089844 C 124.367188 214.085938 124.613281 213.09375 124.910156 212.113281 C 125.207031 211.136719 125.550781 210.171875 125.9375 209.226562 C 126.328125 208.277344 126.765625 207.355469 127.246094 206.449219 C 127.726562 205.546875 128.25 204.667969 128.816406 203.816406 C 129.386719 202.964844 129.992188 202.140625 130.640625 201.347656 C 131.289062 200.558594 131.972656 199.796875 132.695312 199.074219 C 133.417969 198.347656 134.175781 197.660156 134.964844 197.007812 C 135.753906 196.355469 136.574219 195.746094 137.425781 195.175781 C 138.273438 194.605469 139.152344 194.078125 140.050781 193.59375 C 140.953125 193.109375 141.878906 192.667969 142.824219 192.277344 C 143.765625 191.882812 144.730469 191.535156 145.707031 191.234375 C 146.6875 190.9375 147.679688 190.683594 148.683594 190.484375 C 149.683594 190.28125 150.695312 190.128906 151.714844 190.027344 C 152.734375 189.921875 153.753906 189.871094 154.777344 189.867188 C 155.804688 189.867188 156.824219 189.917969 157.84375 190.019531 C 158.863281 190.121094 159.878906 190.273438 160.882812 190.472656 C 161.886719 190.675781 162.878906 190.925781 163.859375 191.222656 C 164.839844 191.523438 165.804688 191.867188 166.75 192.261719 C 167.699219 192.652344 168.621094 193.089844 169.527344 193.574219 C 170.429688 194.058594 171.308594 194.585938 172.160156 195.15625 C 173.011719 195.726562 173.832031 196.335938 174.625 196.988281 C 175.417969 197.636719 176.175781 198.324219 176.898438 199.050781 C 177.625 199.773438 178.308594 200.535156 178.960938 201.328125 C 179.609375 202.117188 180.21875 202.941406 180.789062 203.792969 C 181.355469 204.644531 181.882812 205.523438 182.367188 206.429688 C 182.847656 207.332031 183.285156 208.257812 183.679688 209.203125 C 184.070312 210.152344 184.414062 211.117188 184.710938 212.097656 C 185.007812 213.078125 185.257812 214.070312 185.457031 215.074219 C 185.65625 216.082031 185.808594 217.09375 185.90625 218.113281 C 186.007812 219.132812 186.058594 220.15625 186.058594 221.179688 Z M 186.140625 221.179688 " fill-opacity="1" fill-rule="nonzero"/><path fill="#ffffff" d="M 139.097656 200.074219 C 138.613281 200.355469 138.171875 200.695312 137.773438 201.089844 C 137.375 201.488281 137.039062 201.929688 136.757812 202.414062 C 136.476562 202.902344 136.261719 203.414062 136.117188 203.957031 C 135.972656 204.5 135.898438 205.050781 135.898438 205.613281 L 135.898438 236.652344 C 135.898438 237.214844 135.96875 237.769531 136.113281 238.3125 C 136.257812 238.855469 136.472656 239.371094 136.753906 239.859375 C 137.035156 240.34375 137.375 240.789062 137.769531 241.183594 C 138.167969 241.582031 138.609375 241.921875 139.097656 242.203125 C 139.585938 242.484375 140.097656 242.699219 140.640625 242.84375 C 141.183594 242.988281 141.738281 243.0625 142.296875 243.0625 C 142.859375 243.0625 143.410156 242.988281 143.953125 242.84375 C 144.496094 242.699219 145.011719 242.484375 145.5 242.203125 L 172.394531 226.683594 C 172.882812 226.402344 173.324219 226.0625 173.722656 225.667969 C 174.117188 225.269531 174.457031 224.828125 174.738281 224.339844 C 175.019531 223.855469 175.234375 223.339844 175.378906 222.796875 C 175.523438 222.253906 175.597656 221.703125 175.597656 221.140625 C 175.597656 220.578125 175.523438 220.027344 175.378906 219.484375 C 175.234375 218.941406 175.019531 218.425781 174.738281 217.9375 C 174.457031 217.453125 174.117188 217.011719 173.722656 216.613281 C 173.324219 216.214844 172.882812 215.875 172.394531 215.597656 L 145.5 200.074219 C 145.011719 199.792969 144.496094 199.582031 143.953125 199.4375 C 143.410156 199.289062 142.859375 199.21875 142.296875 199.21875 C 141.738281 199.21875 141.183594 199.289062 140.640625 199.4375 C 140.097656 199.582031 139.585938 199.792969 139.097656 200.074219 Z M 148.699219 216.699219 L 156.394531 221.179688 L 148.699219 225.578125 Z M 148.699219 216.699219 " fill-opacity="1" fill-rule="nonzero"/></svg>