<svg id="visual" viewBox="0 0 900 600" width="900" height="600" xmlns="http://www.w3.org/2000/svg" xmlns:xlink="http://www.w3.org/1999/xlink" version="1.1"><rect x="0" y="0" width="900" height="600" fill="#FFFFFF"></rect><path d="M0 292L37.5 280.7C75 269.3 150 246.7 225 271.5C300 296.3 375 368.7 450 387.7C525 406.7 600 372.3 675 368.2C750 364 825 390 862.5 403L900 416L900 0L862.5 0C825 0 750 0 675 0C600 0 525 0 450 0C375 0 300 0 225 0C150 0 75 0 37.5 0L0 0Z" fill="#00854a" stroke-linecap="round" stroke-linejoin="miter"></path></svg>